<?xml version="1.0" encoding="utf-8"?>
<!-- Generator: Adobe Illustrator 15.0.2, SVG Export Plug-In . SVG Version: 6.00 Build 0)  -->
<!DOCTYPE svg PUBLIC "-//W3C//DTD SVG 1.1//EN" "http://www.w3.org/Graphics/SVG/1.1/DTD/svg11.dtd">
<svg version="1.1" id="Layer_1" xmlns="http://www.w3.org/2000/svg" xmlns:xlink="http://www.w3.org/1999/xlink" x="0px" y="0px"
	 width="235px" height="120px" viewBox="27.637 1.77 235 120" enable-background="new 27.637 1.77 235 120" xml:space="preserve">
<g>
	<path fill="#5A5A5A" d="M52.883,6.63V31.75h-7.585V6.735c0-3.028-3.976-2.923-3.976-0.105V31.75h-3.776h-3.551V6.822
		c0-3.167-4.237-3.046-4.237-0.114v33.714c0,4.829,3.628,8.048,7.805,8.048v61.287c0,8.692,11.867,8.692,11.867,0V48.471
		c4.28,0,7.586-3.871,7.586-7.5V6.735C57.016,3.75,52.883,3.855,52.883,6.63z"/>
	<path fill="#5A5A5A" d="M88.25,4.478c-7.527,0-13.629,9.848-13.629,21.997c0,8.706,3.141,16.207,7.687,19.772v63.468
		c0,8.388,11.886,8.509,11.886,0V46.247c4.545-3.566,7.687-11.067,7.687-19.772C101.88,14.326,95.776,4.478,88.25,4.478z"/>
	<path fill="#5A5A5A" d="M257.731,79.152h-3.183c-1.198-19.175-14.644-34.343-31.013-34.343h-74.197
		c-16.369,0-29.815,15.167-31.014,34.343h-3.183c-1.538,0-2.784,1.246-2.784,2.784c0,1.537,1.246,2.784,2.784,2.784h3.183
		c1.198,19.175,14.645,34.341,31.014,34.341h74.197c16.369,0,29.814-15.166,31.013-34.341h3.183c1.538,0,2.784-1.247,2.784-2.784
		C260.516,80.398,259.27,79.152,257.731,79.152z M149.339,50.378h74.197c13.324,0,24.291,12.673,25.437,28.774h-36.9h-51.271
		h-36.899C125.047,63.051,136.016,50.378,149.339,50.378z M206.172,84.721c-0.913,3.723-3.606,6.426-6.777,6.426h-25.915
		c-3.171,0-5.864-2.703-6.777-6.426H206.172z M223.536,113.493h-74.197c-13.323,0-24.292-12.673-25.437-28.772h37.133
		c1.121,6.821,6.271,11.994,12.444,11.994h25.915c6.174,0,11.323-5.173,12.445-11.994h37.133
		C247.827,100.82,236.86,113.493,223.536,113.493z"/>
	<path fill="#5A5A5A" d="M175.688,24.906c1.65,1.004,2.198,1.42,2.365,2.503c0.169,1.083-0.227,1.645-1.494,3.102
		c-1.425,1.637-3.376,3.88-2.797,7.611c0.213,1.375,1.398,2.357,2.748,2.357c0.142,0,0.286-0.011,0.431-0.034
		c1.52-0.235,2.561-1.658,2.324-3.178c-0.169-1.083,0.228-1.646,1.495-3.102c1.425-1.638,3.376-3.88,2.796-7.611
		c-0.579-3.731-3.119-5.277-4.973-6.406c-1.65-1.004-2.198-1.419-2.366-2.502c-0.167-1.081,0.228-1.643,1.496-3.098
		c1.425-1.637,3.377-3.879,2.798-7.609c-0.237-1.52-1.654-2.567-3.179-2.324c-1.52,0.236-2.561,1.659-2.324,3.178
		c0.169,1.081-0.228,1.643-1.494,3.098c-1.426,1.637-3.378,3.878-2.8,7.608C171.295,22.232,173.834,23.777,175.688,24.906z"/>
	<path fill="#5A5A5A" d="M191.281,24.906c1.649,1.004,2.198,1.419,2.365,2.502c0.169,1.083-0.228,1.645-1.495,3.102
		c-1.425,1.637-3.377,3.88-2.799,7.611c0.214,1.375,1.399,2.357,2.749,2.357c0.141,0,0.285-0.011,0.431-0.034
		c1.519-0.235,2.56-1.658,2.323-3.178c-0.168-1.083,0.228-1.645,1.496-3.102c1.426-1.638,3.377-3.88,2.798-7.611
		c-0.58-3.731-3.12-5.276-4.974-6.405c-1.649-1.004-2.197-1.42-2.365-2.503c-0.168-1.081,0.228-1.643,1.494-3.098
		c1.426-1.637,3.378-3.878,2.8-7.608c-0.235-1.52-1.655-2.562-3.178-2.325c-1.52,0.236-2.561,1.659-2.325,3.178
		c0.167,1.081-0.228,1.643-1.495,3.098c-1.425,1.637-3.377,3.879-2.799,7.608C186.888,22.232,189.427,23.777,191.281,24.906z"/>
</g>
</svg>
