<?xml version="1.0" encoding="utf-8"?>
<!-- Generator: Adobe Illustrator 15.0.2, SVG Export Plug-In . SVG Version: 6.00 Build 0)  -->
<!DOCTYPE svg PUBLIC "-//W3C//DTD SVG 1.1//EN" "http://www.w3.org/Graphics/SVG/1.1/DTD/svg11.dtd">
<svg version="1.1" id="Layer_1" xmlns="http://www.w3.org/2000/svg" xmlns:xlink="http://www.w3.org/1999/xlink" x="0px" y="0px"
	 width="205px" height="120px" viewBox="42.637 1.77 205 120" enable-background="new 42.637 1.77 205 120" xml:space="preserve">
<g>
	<path fill="#5A5A5A" d="M68.838,6.684v25.744h-7.773V6.792c0-3.104-4.076-2.996-4.076-0.107v25.744h-3.869H49.48V6.88
		c0-3.246-4.344-3.122-4.344-0.116v34.554c0,4.949,3.719,8.249,7.998,8.249v62.813c0,8.908,12.164,8.908,12.164,0V49.567
		c4.387,0,7.775-3.968,7.775-7.687V6.792C73.074,3.732,68.838,3.839,68.838,6.684z"/>
	<path fill="#5A5A5A" d="M105.086,4.478c-7.715,0-13.969,10.093-13.969,22.545c0,8.922,3.219,16.61,7.879,20.265v65.047
		c0,8.598,12.182,8.721,12.182,0V47.287c4.658-3.654,7.877-11.343,7.877-20.264C119.055,14.571,112.801,4.478,105.086,4.478z"/>
	<path fill="#5A5A5A" d="M187.959,4.478c-31.576,0-57.176,25.599-57.176,57.176c0,31.578,25.6,57.175,57.176,57.175
		c31.578,0,57.178-25.598,57.178-57.175C245.137,30.077,219.537,4.478,187.959,4.478z M187.959,113.122
		c-28.379,0-51.469-23.089-51.469-51.468c0-28.38,23.09-51.469,51.469-51.469c28.381,0,51.471,23.089,51.471,51.469
		C239.43,90.033,216.34,113.122,187.959,113.122z"/>
	<path fill="#5A5A5A" d="M187.959,21.409c-10.75,0-20.855,4.186-28.457,11.788c-1.115,1.114-1.115,2.921,0,4.035s2.92,1.114,4.035,0
		c6.523-6.523,15.197-10.116,24.422-10.116c19.045,0,34.539,15.493,34.539,34.538c0,9.831-4.209,19.225-11.547,25.775
		c-1.176,1.05-1.277,2.854-0.229,4.029c0.564,0.631,1.346,0.953,2.131,0.953c0.676,0,1.355-0.239,1.898-0.725
		c8.551-7.632,13.453-18.578,13.453-30.033C228.205,39.462,210.152,21.409,187.959,21.409z"/>
	<path fill="#5A5A5A" d="M197.424,94.88c-3.062,0.87-6.248,1.312-9.465,1.312c-19.043,0-34.537-15.493-34.537-34.538
		c0-4.338,0.793-8.566,2.355-12.566c0.574-1.468-0.15-3.123-1.619-3.696c-1.467-0.573-3.121,0.151-3.695,1.619
		c-1.824,4.665-2.748,9.592-2.748,14.644c0,22.191,18.055,40.245,40.244,40.245c3.746,0,7.455-0.514,11.025-1.527
		c1.516-0.432,2.395-2.01,1.965-3.526C200.518,95.33,198.945,94.452,197.424,94.88z"/>
</g>
</svg>
