<?xml version="1.0" encoding="utf-8"?>
<!-- Generator: Adobe Illustrator 15.0.2, SVG Export Plug-In . SVG Version: 6.00 Build 0)  -->
<!DOCTYPE svg PUBLIC "-//W3C//DTD SVG 1.1//EN" "http://www.w3.org/Graphics/SVG/1.1/DTD/svg11.dtd">
<svg version="1.1" id="Element" xmlns="http://www.w3.org/2000/svg" xmlns:xlink="http://www.w3.org/1999/xlink" x="0px" y="0px"
	 width="790.866px" height="249.45px" viewBox="0 0 790.866 249.45" enable-background="new 0 0 790.866 249.45"
	 xml:space="preserve">
<path fill="#EE2737" d="M168.527,222.916c-41.676,0-77.617-24.928-93.758-60.648c2.805,1.036,5.83,1.591,8.957,1.591
	c5.154,0,10.059-1.478,14.102-4.208c4.041,2.73,8.943,4.208,14.102,4.208c5.154,0,10.059-1.478,14.104-4.208
	c4.039,2.73,8.943,4.208,14.102,4.208c5.156,0,10.059-1.478,14.102-4.208c4.041,2.73,8.945,4.208,14.104,4.208
	c5.156,0,10.061-1.478,14.104-4.208c4.041,2.73,8.943,4.208,14.102,4.208c5.156,0,10.061-1.478,14.104-4.208
	c4.041,2.73,8.945,4.208,14.102,4.208s10.059-1.478,14.102-4.208c4.041,2.73,8.945,4.208,14.102,4.208
	c3.291,0,6.469-0.617,9.393-1.763C246.244,197.905,210.269,222.916,168.527,222.916z"/>
<path fill="#3F2021" d="M98.601,201.288c18.785,16.204,43.234,26.015,69.932,26.015c50.096,0,92.266-34.537,103.977-81.048
	c-1.561,0.143-3.104-0.823-4.002-2.264c-10.809,45.194-51.516,78.903-99.975,78.903c-49.85,0-91.514-35.67-100.844-82.826
	c-0.057-0.019-0.107-0.024-0.164-0.046c-1.998-0.792-3.623-1.822-4.883-3.117C66.691,162.483,79.814,185.084,98.601,201.288"/>
<path fill="#3F2021" d="M206.244,115.106c-0.807-0.03-1.576-0.42-2.115-1.015c-0.611,2.451-1.241,4.916-1.693,6.655
	c-0.254,0.982,0.334,1.984,1.316,2.241c0.156,0.04,0.311,0.059,0.465,0.059c0.816,0,1.561-0.548,1.777-1.376
	c0.061-0.236,0.76-2.937,1.539-6.045C207.023,115.554,206.589,115.375,206.244,115.106z"/>
<path fill="#3F2021" d="M63.343,120.646c-1.014,0-1.836-0.822-1.836-1.836l-0.01-8.999c-0.002-1.016,0.764-1.802,1.836-1.84
	c1.015,0,1.838,0.821,1.838,1.836l0.009,8.998c0.002,1.015-0.82,1.838-1.834,1.841C63.345,120.646,63.345,120.646,63.343,120.646z"
	/>
<path fill="#3F2021" d="M269.212,143.54c-0.314-0.039-0.627-0.089-0.943-0.123c-0.984-0.104-1.865-0.551-2.402-1.279
	c-0.031-0.014-0.064-0.03-0.096-0.045c-7.248,4.357-15.711,8.132-25.484,10.875c-1.174,0.329-1.857,1.545-1.527,2.719
	c0.271,0.972,1.158,1.609,2.121,1.609c0.197,0,0.398-0.026,0.598-0.083c11.283-3.168,20.914-7.667,29.012-12.876
	C270.123,144.046,269.691,143.78,269.212,143.54z"/>
<path fill="#EE2737" d="M67.08,103.503c7.953-48.832,50.41-86.232,101.453-86.232c54.703,0,99.551,42.948,102.629,96.893
	c1.43-0.431,3.156-0.177,4.463,0.756c-2.705-56.734-49.699-102.059-107.092-102.059c-53.205,0-97.465,38.964-105.791,89.851
	C64.21,102.299,65.89,102.559,67.08,103.503z"/>
<path fill="#3F2021" d="M117.384,115.406c-0.109,0-0.221-0.009-0.332-0.026c-1.206-0.181-2.033-1.306-1.85-2.51
	c0.148-0.986,0.225-1.997,0.225-3.004c0-10.942-8.902-19.846-19.844-19.846c-9.096,0-17.008,6.148-19.238,14.952
	c-0.299,1.181-1.499,1.895-2.678,1.597c-1.182-0.3-1.896-1.499-1.598-2.681c2.729-10.761,12.396-18.277,23.514-18.277
	c13.373,0,24.254,10.879,24.254,24.254c0,1.228-0.092,2.462-0.275,3.667C119.398,114.624,118.457,115.406,117.384,115.406z"/>
<path fill="#3F2021" d="M142.066,119.426c-0.018,0-0.035,0-0.053,0c-1.216-0.03-2.181-1.039-2.152-2.255l0.006-0.506
	c0-10.944-8.902-19.845-19.846-19.845c-2.283,0-4.52,0.381-6.65,1.141c-1.147,0.407-2.408-0.191-2.816-1.34
	c-0.408-1.146,0.191-2.407,1.34-2.816c2.605-0.926,5.34-1.396,8.127-1.396c13.375,0,24.256,10.881,24.256,24.256l-0.008,0.608
	C144.242,118.472,143.259,119.426,142.066,119.426z"/>
<path fill="#3F2021" d="M166.767,122.375c-1.021,0-1.936-0.713-2.156-1.751c-1.926-9.109-10.09-15.72-19.416-15.72
	c-2.219,0-4.395,0.363-6.471,1.078c-1.152,0.398-2.408-0.213-2.804-1.365c-0.396-1.15,0.215-2.406,1.365-2.803
	c2.541-0.875,5.201-1.318,7.91-1.318c11.396,0,21.377,8.082,23.73,19.217c0.252,1.192-0.508,2.362-1.699,2.613
	C167.072,122.357,166.917,122.375,166.767,122.375z"/>
<g>
	<path fill="#EE2737" d="M316.197,210.665c-5.236,0-9.729,3.732-10.684,8.874c-0.013,0.078-0.025,0.155-0.029,0.233
		c-0.973,7.252-7.195,12.7-14.541,12.7c-7.344,0-13.566-5.448-14.539-12.699c-0.004-0.079-0.016-0.157-0.029-0.234
		c-0.955-5.142-5.449-8.874-10.686-8.874c-3.758,0-6.816,3.059-6.816,6.817c0,3.758,3.058,6.817,6.816,6.817
		c1.137,0,2.059-0.922,2.059-2.058c0-1.137-0.922-2.058-2.059-2.058c-1.49,0-2.703-1.212-2.703-2.702
		c0-1.491,1.213-2.705,2.703-2.705c3.219,0,5.986,2.267,6.621,5.406c1.184,9.356,9.184,16.403,18.633,16.403
		c9.451,0,17.451-7.047,18.635-16.403c0.635-3.139,3.4-5.406,6.619-5.406c1.49,0,2.703,1.213,2.703,2.705
		c0,1.49-1.213,2.702-2.703,2.702c-1.137,0-2.057,0.921-2.057,2.058c0,1.135,0.92,2.058,2.057,2.058
		c3.758,0,6.816-3.059,6.816-6.817C323.013,213.724,319.955,210.665,316.197,210.665z"/>
	<path fill="#EE2737" d="M296.648,186.938c0.166,0.053,0.334,0.078,0.5,0.078c0.697,0,1.344-0.445,1.568-1.144
		c0.255-0.803,0.385-1.641,0.385-2.486c0-2.843-1.443-5.436-3.859-6.938c-0.078-0.05-0.158-0.089-0.24-0.123
		c-1.496-0.871-2.414-2.462-2.414-4.204c0-0.908-0.736-1.646-1.645-1.646s-1.645,0.738-1.645,1.646c0,1.636-0.809,3.14-2.166,4.047
		c-2.684,1.42-4.348,4.177-4.348,7.217c0,0.846,0.131,1.683,0.387,2.485c0.277,0.866,1.201,1.343,2.068,1.068
		c0.865-0.278,1.344-1.203,1.066-2.07c-0.152-0.478-0.23-0.978-0.23-1.482c0-1.79,0.965-3.412,2.529-4.271
		c0.072-0.034,0.145-0.073,0.213-0.114c0.834-0.534,1.549-1.199,2.125-1.96c0.711,0.939,1.631,1.729,2.715,2.302
		c1.352,0.907,2.152,2.407,2.152,4.042c0,0.505-0.076,1.005-0.229,1.482C295.304,185.735,295.781,186.66,296.648,186.938z"/>
	<path fill="#EE2737" d="M285.242,212.863c-0.867-0.276-1.791,0.2-2.068,1.066c-0.258,0.801-0.387,1.639-0.387,2.486
		c0,2.841,1.441,5.435,3.859,6.935c0.078,0.049,0.158,0.09,0.24,0.124c1.494,0.872,2.414,2.462,2.414,4.205
		c0,0.907,0.736,1.645,1.645,1.645s1.646-0.738,1.646-1.645c0-1.635,0.807-3.141,2.162-4.048c2.684-1.419,4.35-4.176,4.35-7.216
		c0-0.844-0.131-1.682-0.387-2.486c-0.275-0.865-1.199-1.343-2.066-1.066c-0.865,0.275-1.344,1.201-1.068,2.066
		c0.152,0.479,0.23,0.979,0.23,1.486c0,1.785-0.965,3.41-2.525,4.269c-0.074,0.031-0.147,0.073-0.217,0.118
		c-0.834,0.531-1.549,1.197-2.125,1.958c-0.711-0.941-1.629-1.732-2.715-2.303c-1.352-0.908-2.152-2.406-2.152-4.042
		c0-0.507,0.076-1.007,0.228-1.486C286.583,214.066,286.107,213.139,285.242,212.863z"/>
	<path fill="#EE2737" d="M278.021,194.045c-4.594,0-8.33,3.738-8.33,8.331c0,4.594,3.736,8.329,8.33,8.329
		c1.135,0,2.057-0.921,2.057-2.057c0-1.135-0.922-2.056-2.057-2.056c-2.326,0-4.217-1.891-4.217-4.216
		c0-2.324,1.891-4.216,4.217-4.216c1.27,0,2.193,0.574,2.746,1.053c0.535,0.465,1.271,0.622,1.949,0.415
		c0.678-0.206,1.203-0.747,1.387-1.43c0.834-3.086,3.646-5.243,6.84-5.243s6.006,2.157,6.84,5.243
		c0.186,0.683,0.709,1.224,1.387,1.43c0.679,0.207,1.414,0.05,1.949-0.415c0.553-0.479,1.478-1.053,2.748-1.053
		c2.324,0,4.217,1.892,4.217,4.216c0,2.325-1.893,4.216-4.217,4.216c-1.137,0-2.057,0.921-2.057,2.056
		c0,1.136,0.92,2.057,2.057,2.057c4.594,0,8.33-3.734,8.33-8.329c0-4.592-3.736-8.331-8.33-8.331c-1.066,0-2.121,0.214-3.104,0.615
		c-1.933-3.521-5.673-5.819-9.82-5.819c-4.145,0-7.885,2.298-9.818,5.819C280.14,194.259,279.087,194.045,278.021,194.045z"/>
	<circle fill="#3F2021" cx="290.944" cy="183.314" r="2.351"/>
	<path fill="#3F2021" d="M293.294,216.065c0-1.301-1.053-2.35-2.352-2.35s-2.35,1.049-2.35,2.35c0,1.298,1.051,2.35,2.35,2.35
		S293.294,217.363,293.294,216.065z"/>
</g>
<g>
	<path fill="#EE2737" d="M20.056,210.665c5.237,0,9.729,3.732,10.684,8.874c0.014,0.078,0.025,0.155,0.029,0.233
		c0.973,7.252,7.195,12.7,14.541,12.7c7.344,0,13.566-5.448,14.537-12.699c0.006-0.079,0.016-0.157,0.032-0.234
		c0.955-5.142,5.447-8.874,10.684-8.874c3.758,0,6.816,3.059,6.816,6.817c0,3.758-3.059,6.817-6.816,6.817
		c-1.137,0-2.057-0.922-2.057-2.058c0-1.137,0.92-2.058,2.057-2.058c1.49,0,2.703-1.212,2.703-2.702
		c0-1.491-1.213-2.705-2.703-2.705c-3.219,0-5.984,2.267-6.619,5.406c-1.186,9.356-9.186,16.403-18.633,16.403
		c-9.451,0-17.451-7.047-18.635-16.403c-0.635-3.139-3.402-5.406-6.62-5.406c-1.492,0-2.703,1.213-2.703,2.705
		c0,1.49,1.211,2.702,2.703,2.702c1.135,0,2.057,0.921,2.057,2.058c0,1.135-0.922,2.058-2.057,2.058
		c-3.759,0-6.816-3.059-6.816-6.817C13.24,213.724,16.296,210.665,20.056,210.665z"/>
	<path fill="#EE2737" d="M39.605,186.938c-0.166,0.053-0.334,0.078-0.502,0.078c-0.695,0-1.344-0.445-1.566-1.144
		c-0.256-0.803-0.387-1.641-0.387-2.486c0-2.843,1.445-5.436,3.861-6.938c0.078-0.05,0.158-0.089,0.24-0.123
		c1.494-0.871,2.412-2.462,2.412-4.204c0-0.908,0.738-1.646,1.646-1.646s1.645,0.738,1.645,1.646c0,1.636,0.807,3.14,2.164,4.047
		c2.684,1.42,4.348,4.177,4.348,7.217c0,0.846-0.129,1.683-0.385,2.485c-0.277,0.866-1.203,1.343-2.069,1.068
		c-0.867-0.278-1.343-1.203-1.068-2.07c0.154-0.478,0.23-0.978,0.23-1.482c0-1.79-0.963-3.412-2.527-4.271
		c-0.072-0.034-0.145-0.073-0.215-0.114c-0.832-0.534-1.546-1.199-2.123-1.96c-0.711,0.939-1.631,1.729-2.715,2.302
		c-1.352,0.907-2.154,2.407-2.154,4.042c0,0.505,0.078,1.005,0.23,1.482C40.949,185.735,40.47,186.66,39.605,186.938z"/>
	<path fill="#EE2737" d="M51.011,212.863c0.865-0.276,1.791,0.2,2.068,1.066c0.256,0.801,0.387,1.639,0.387,2.486
		c0,2.841-1.443,5.435-3.861,6.935c-0.078,0.049-0.158,0.09-0.24,0.124c-1.494,0.872-2.412,2.462-2.412,4.205
		c0,0.907-0.736,1.645-1.645,1.645c-0.91,0-1.646-0.738-1.646-1.645c0-1.635-0.807-3.141-2.162-4.048
		c-2.686-1.419-4.35-4.176-4.35-7.216c0-0.844,0.131-1.682,0.385-2.486c0.277-0.865,1.201-1.343,2.066-1.066
		c0.867,0.275,1.346,1.201,1.068,2.066c-0.152,0.479-0.229,0.979-0.229,1.486c0,1.785,0.963,3.41,2.525,4.269
		c0.074,0.031,0.146,0.073,0.216,0.118c0.834,0.531,1.549,1.197,2.125,1.958c0.709-0.941,1.627-1.732,2.715-2.303
		c1.352-0.908,2.152-2.406,2.152-4.042c0-0.507-0.077-1.007-0.23-1.486C49.669,214.066,50.146,213.139,51.011,212.863z"/>
	<path fill="#EE2737" d="M58.232,194.045c4.594,0,8.33,3.738,8.33,8.331c0,4.594-3.736,8.329-8.33,8.329
		c-1.137,0-2.057-0.921-2.057-2.057c0-1.135,0.92-2.056,2.057-2.056c2.324,0,4.217-1.891,4.217-4.216
		c0-2.324-1.893-4.216-4.217-4.216c-1.27,0-2.195,0.574-2.748,1.053c-0.535,0.465-1.271,0.622-1.949,0.415
		c-0.678-0.206-1.201-0.747-1.387-1.43c-0.834-3.086-3.646-5.243-6.838-5.243c-3.195,0-6.008,2.157-6.842,5.243
		c-0.184,0.683-0.709,1.224-1.387,1.43c-0.678,0.207-1.412,0.05-1.949-0.415c-0.551-0.479-1.477-1.053-2.746-1.053
		c-2.326,0-4.217,1.892-4.217,4.216c0,2.325,1.891,4.216,4.217,4.216c1.135,0,2.057,0.921,2.057,2.056
		c0,1.136-0.922,2.057-2.057,2.057c-4.594,0-8.331-3.734-8.331-8.329c0-4.592,3.737-8.331,8.331-8.331
		c1.066,0,2.119,0.214,3.104,0.615c1.934-3.521,5.674-5.819,9.82-5.819c4.145,0,7.883,2.298,9.816,5.819
		C56.111,194.259,57.166,194.045,58.232,194.045z"/>
	<circle fill="#3F2021" cx="45.308" cy="183.314" r="2.35"/>
	<path fill="#3F2021" d="M42.958,216.065c0-1.301,1.053-2.35,2.352-2.35c1.297,0,2.348,1.049,2.348,2.35
		c0,1.298-1.051,2.35-2.348,2.35C44.011,218.415,42.958,217.363,42.958,216.065z"/>
</g>
<g>
	<path fill="#3F2021" d="M218.041,79.891c-1.021-0.094-2.043-0.16-3.051-0.12c-0.439,0.018-0.812-0.124-1.131-0.362
		c-0.471,5.07-0.656,9.813-0.072,12.251c1.613,6.771,6.986-5.855,6.99-5.865C219.433,85.576,218.423,83.195,218.041,79.891z"/>
	<path fill="#3F2021" d="M224.335,80.507c-0.799,3.336-2.158,5.511-3.559,5.287c0.004,0.011,3.6,12.881,6.625,7.458
		c1.256-2.257,2.018-7.799,2.479-13.502C228.062,80.43,226.205,80.583,224.335,80.507z"/>
</g>
<path fill="#3F2021" d="M224.73,186.7c-5.186,0-10.102-1.534-14.096-4.365c-3.997,2.831-8.914,4.365-14.098,4.365
	s-10.102-1.534-14.094-4.364c-3.996,2.83-8.914,4.364-14.098,4.364c-5.186,0-10.104-1.534-14.096-4.364
	c-3.996,2.83-8.914,4.364-14.096,4.364c-5.188,0-10.104-1.534-14.096-4.364c-3.996,2.83-8.914,4.364-14.097,4.364
	c-6.066,0-11.766-2.102-16.051-5.92c-1.213-1.08-1.318-2.937-0.238-4.15c1.08-1.211,2.938-1.319,4.15-0.238
	c3.205,2.855,7.518,4.429,12.139,4.429s8.934-1.574,12.143-4.43c1.115-0.994,2.797-0.994,3.912,0.001
	c3.203,2.857,7.516,4.429,12.139,4.429c4.621,0,8.932-1.574,12.141-4.429c1.115-0.995,2.797-0.995,3.912,0
	c3.203,2.855,7.514,4.429,12.139,4.429c4.623,0,8.934-1.574,12.143-4.429c1.115-0.995,2.797-0.995,3.912,0
	c3.205,2.855,7.516,4.429,12.137,4.429s8.934-1.574,12.143-4.43c1.115-0.994,2.797-0.994,3.912,0.001
	c3.203,2.855,7.516,4.429,12.139,4.429c4.621,0,8.932-1.574,12.139-4.429c1.213-1.082,3.07-0.974,4.152,0.239
	c1.08,1.212,0.971,3.069-0.242,4.149C236.494,184.599,230.794,186.7,224.73,186.7z"/>
<path fill="#3F2021" d="M183.138,210.107c-5.181,0-10.099-1.536-14.095-4.366c-3.998,2.83-8.914,4.366-14.096,4.366
	c-6.064,0-11.764-2.103-16.051-5.919c-1.213-1.082-1.32-2.939-0.242-4.152c1.08-1.21,2.939-1.318,4.15-0.24
	c3.211,2.856,7.523,4.43,12.143,4.43s8.932-1.574,12.141-4.43c1.115-0.992,2.795-0.992,3.91,0c3.209,2.856,7.521,4.43,12.14,4.43
	c4.622,0,8.934-1.573,12.141-4.43c1.213-1.079,3.07-0.972,4.15,0.24c1.08,1.213,0.973,3.071-0.24,4.15
	C194.906,208.004,189.205,210.107,183.138,210.107z"/>
<path fill="#3B3A39" d="M208.318,172.381"/>
<path fill="#3F2021" d="M53.9,117.267c-1.217,0-2.205-0.989-2.205-2.206v-14.542c0-0.89,0.533-1.692,1.354-2.034
	c0.82-0.345,1.766-0.161,2.398,0.462l9.434,9.292c0.869,0.854,0.879,2.25,0.025,3.118c-0.855,0.867-2.252,0.878-3.119,0.025
	l-5.682-5.598v9.277C56.105,116.278,55.119,117.267,53.9,117.267z"/>
<path fill="#3F2021" d="M251.783,135.843c-0.779-0.134-1.379-0.511-1.799-1.03c-3.02,0.705-6.197,1.364-9.57,1.975
	c-27.375,4.971-74.352,6.491-124.096-4.15c-44.994-9.625-85.492-30.438-85.896-30.646c-1.08-0.559-2.412-0.137-2.971,0.945
	c-0.561,1.081-0.139,2.412,0.943,2.972c0.408,0.212,41.41,21.29,87.002,31.042c27.328,5.847,53.85,8.062,76.836,8.062
	c19.383,0,36.256-1.576,48.969-3.884c4.396-0.799,8.488-1.674,12.322-2.63C252.587,137.879,252.023,136.905,251.783,135.843z"/>
<path fill="#3F2021" d="M238.718,131.201c-2.331-0.432-3.283-2.142-3.225-3.937c-11.75,1.336-24.535,2.057-38.307,2.116
	c-60.982,0.26-121.639-18.008-133.186-21.671c-1.16-0.369-2.4,0.272-2.77,1.434c-0.369,1.161,0.275,2.4,1.436,2.77
	c11.574,3.673,72.049,21.881,133.219,21.881c0.438,0,0.885-0.001,1.32-0.002c15.18-0.066,29.219-0.914,41.99-2.514
	C239.037,131.249,238.876,131.23,238.718,131.201z"/>
<path fill="#3F2021" d="M298.925,109.143c-0.879-0.842-2.307-0.841-3.117,0.068c-7.098,7.969-27.887,14.303-42.855,18.237
	c0.285,0.135,0.559,0.306,0.801,0.533c1.199,1.126,2.477,2.03,4.029,2.367c0.213,0.048,0.412,0.125,0.6,0.221
	c14.957-4.03,31.672-9.311,40.611-18.307C299.853,111.396,299.806,109.983,298.925,109.143z"/>
<path fill="#3F2021" d="M221.169,122.72c-0.463-0.589-0.703-1.343-0.658-2.104c-2.424,0.138-4.896,0.26-7.471,0.35
	c-48.311,1.657-102.608-9.744-158.648-22.598c-1.188-0.272-2.369,0.471-2.641,1.657c-0.273,1.188,0.469,2.37,1.656,2.643
	c56.334,12.921,110.949,24.379,159.785,22.704c2.953-0.101,5.775-0.246,8.537-0.412C221.267,124.328,221.08,123.51,221.169,122.72z"
	/>
<path fill="#3F2021" d="M301.058,106.915c-0.41-0.599-1.09-0.956-1.816-0.956l-8.555,0.007c-0.285,0-0.568,0.055-0.832,0.163
	l-1.225,0.507c-6.836,2.841-22.885,9.492-52.629,12.72c0.01,0.008,0.023,0.01,0.035,0.019c0.639,0.407,1.283,0.811,1.951,1.17
	c0.338,0.182,0.676,0.364,1.023,0.524c0.066,0.03,0.109,0.047,0.15,0.067c0.131,0.05,0.264,0.101,0.398,0.146
	c0.926,0.322,1.652,1,1.977,1.849c27.139-3.466,42.18-9.681,48.787-12.423l0.805-0.333l4.779-0.005
	c-4.1,8.835-11.709,18.622-23.098,27.008c0.873,0.083,1.518,0.486,1.938,1.055c0.849,0.267,1.558,0.803,1.914,1.588
	c12.752-9.728,20.82-21.167,24.637-31.064C301.56,108.277,301.47,107.514,301.058,106.915z"/>
<path fill="#3F2021" d="M210.083,89.351c-1.006-0.067-1.887,0.703-1.951,1.714c-0.24,3.723-1.258,9.803-1.803,13.069l-0.266,1.6
	c-0.012,0.077-0.029,0.172-0.047,0.268c0.217-0.048,0.447-0.075,0.695-0.075c1.445,0,2.336,0.852,2.682,1.906
	c0.135-0.625,0.242-1.16,0.299-1.522l0.26-1.568c0.559-3.333,1.594-9.531,1.846-13.44C211.865,90.288,211.095,89.416,210.083,89.351
	z"/>
<path fill="#3F2021" d="M189.761,100.128c-0.84,0-1.598-0.579-1.791-1.432c-0.225-0.989,0.396-1.974,1.387-2.197
	c6.486-1.471,17.982-4.233,18.953-4.488c0.982-0.256,1.986,0.332,2.242,1.313c0.256,0.982-0.332,1.986-1.314,2.243
	c-0.975,0.254-12.525,3.031-19.068,4.514C190.033,100.114,189.896,100.128,189.761,100.128z"/>
<path fill="#3F2021" d="M209.177,78.938c-1.006-0.253-1.607-0.867-1.895-1.598c-2.984,2.414-7.816,6.038-10.418,6.839
	c-3.924,1.207-13.434,4.201-18.127,5.678l-0.924,0.292c-0.969,0.305-1.508,1.337-1.201,2.305c0.305,0.967,1.336,1.505,2.305,1.202
	l0.924-0.292c4.688-1.476,14.186-4.467,18.104-5.672c3.928-1.208,10.479-6.498,12.77-8.414
	C210.203,79.164,209.679,79.065,209.177,78.938z"/>
<path fill="#3F2021" d="M225.001,82.02c-1.162-0.044-2.318-0.114-3.451-0.212c-11.87-1.024-21.629-4.796-25.676-7.87
	c-0.562-0.426-0.812-1.146-0.643-1.83c0.168-0.683,0.729-1.203,1.424-1.318c0.125-0.02,12.531-2.187,15.918-11.603
	c0.232-0.646,0.82-1.099,1.504-1.161c0.121-0.011,3.016-0.263,7.062-0.106c4.288,0.168,10.487,0.841,15.663,3.088
	c0.615,0.267,1.025,0.858,1.061,1.529c0.023,0.418,0.707,10.412,10.85,14.726c0.727,0.308,1.158,1.061,1.061,1.845
	c-0.1,0.784-0.705,1.405-1.486,1.525C247.798,80.709,236.164,82.457,225.001,82.02z M201.476,73.14
	c4.352,2.086,11.521,4.389,20.377,5.15c7.281,0.628,15.525,0.029,20.727-0.514c-6.162-4.673-7.727-11.267-8.119-13.914
	c-4.484-1.726-9.734-2.268-13.459-2.414c-2.398-0.094-4.389-0.033-5.541,0.025C212.482,68.295,205.869,71.625,201.476,73.14z"/>
<g>
	<path fill="#3F2021" d="M233.298,75.924c-0.264-0.036-0.525-0.133-0.762-0.295c-3.416-2.347-4.145-7.1-4.037-9.538
		c0.043-0.975,0.867-1.729,1.842-1.687c0.971,0.045,1.729,0.867,1.686,1.841c-0.057,1.282,0.283,4.943,2.51,6.475
		c0.803,0.551,1.008,1.652,0.455,2.454C234.603,75.742,233.939,76.011,233.298,75.924z"/>
</g>
<g>
	<path fill="#3F2021" d="M220.955,123.34c-0.756-1.111-0.418-2.635,0.476-3.557l-45.859-21.609c0.188,0.579,0.227,1.202,0.078,1.738
		c-0.229,0.828-0.723,1.39-1.352,1.724l47.029,22.161C221.205,123.644,221.07,123.51,220.955,123.34z"/>
	<path fill="#3F2021" d="M327.851,154.658c-0.494-2.351-2.123-4.294-4.471-5.336c-1.555-0.687-15.537-7.195-18.493-8.593
		c-1.402-0.662-2.708-1.07-3.996-1.25c-0.479-0.066-0.959-0.1-1.43-0.1c-2.752,0-5.305,1.17-7.189,3.293l-0.365,0.42
		c-0.393,0.452-0.693,0.774-0.898,0.967c-0.033-0.014-0.068-0.03-0.107-0.049l-46.619-22.069c-0.053-0.024-0.105-0.046-0.156-0.069
		l-7.02-3.312c-0.236,0.618-1.006-0.174-1.592,0.231c-0.262,0.181-0.264,0.554-0.527,0.736c0.076-0.029-1.09,0.63-1.172,0.734
		c-0.061,0.078-1.033,0.208-1.102,0.276l9.99,4.727c0,0,0,0,0.002,0c0,0,0,0,0.004-0.001l46.635,22.076
		c0.508,0.237,0.984,0.39,1.42,0.449c0.148,0.022,0.291,0.031,0.428,0.031c1.367,0,2.324-0.974,3.488-2.317l0.34-0.391
		c1.203-1.356,2.727-2.058,4.441-2.058c0.3,0,0.609,0.021,0.922,0.065c0.914,0.128,1.873,0.434,2.934,0.933
		c2.803,1.325,16.922,7.901,18.572,8.629c1.272,0.565,2.114,1.535,2.364,2.732c0.348,1.65-0.43,3.493-2.385,5.634
		c-0.439,0.486-0.803,0.879-1.129,1.233c0.6,0.595,0.795,1.521,0.414,2.327c-0.352,0.747-1.09,1.184-1.863,1.184
		c-0.094,0-0.188-0.007-0.281-0.02c-0.199-0.03-0.4-0.088-0.592-0.179l-1.887-0.891c-0.002,0-0.002,0-0.004,0l-28.926-13.635
		c-0.002-0.001-0.006-0.002-0.01-0.002c0,0-0.002-0.004-0.004-0.004l-43.537-20.602l-13.705-6.469
		c-0.01,0.081-0.014,0.159-0.029,0.241c-0.24,1.103-0.916,2.376-2.016,2.857l14.182,6.693l43.445,20.559
		c0.07,0.037,0.143,0.07,0.217,0.1l28.816,13.586c0.027,0.014,0.057,0.027,0.086,0.04l1.802,0.85c0.51,0.243,1.065,0.41,1.639,0.494
		c0.275,0.038,0.541,0.057,0.803,0.057c2.209,0,4.244-1.291,5.188-3.289c0.465-0.988,0.625-2.062,0.504-3.102
		C327.488,160.17,328.427,157.41,327.851,154.658z"/>
	<path fill="#3F2021" d="M161.378,89.21c0.35-0.745,1.09-1.182,1.863-1.182c0.293,0,0.59,0.063,0.873,0.195l58.971,27.788
		c-0.199-1.17,0.432-2.482,1.436-3.069c0.111-0.066,0.227-0.108,0.34-0.157L165.681,84.9c-0.767-0.362-1.589-0.546-2.439-0.546
		c-2.215,0-4.252,1.293-5.191,3.294c-0.648,1.375-0.725,2.931-0.207,4.375c0.518,1.442,1.564,2.597,2.951,3.25l6.689,3.152
		c-0.172-0.713-0.09-1.485,0.305-2.159c0.305-0.52,0.758-0.914,1.275-1.16l-6.703-3.158
		C161.333,91.465,160.892,90.238,161.378,89.21z"/>
</g>
<path fill="#3F2021" d="M172.912,106.091c-0.002,0-0.002,0-0.002,0c-2.229,0-5.465-1.23-7.07-3.509
	c-1.004-1.429-1.243-3.099-0.666-4.706c0.93-2.593,3.037-4.076,5.779-4.076c2.17,0,4.531,0.999,6.016,2.545
	c1.029,1.074,1.541,2.372,1.484,3.753c-0.104,2.481-1.967,4.385-2.764,5.086C175.021,105.778,174.06,106.091,172.912,106.091z
	 M170.953,97.475c-1.551,0-2.066,0.938-2.318,1.644c-0.176,0.485-0.111,0.889,0.211,1.349c0.809,1.149,2.791,1.95,4.066,1.95l0,0
	c0.316,0,0.443-0.054,0.443-0.054c0.637-0.58,1.391-1.602,1.426-2.418c0.01-0.256-0.033-0.604-0.465-1.057
	C173.515,98.056,172.132,97.475,170.953,97.475z"/>
<path fill="#3F2021" d="M252.683,102.583c-1.719-3.11-10.859-17.586-14.619-22.135c-0.469,0.637-1.178,1.115-2.135,1.23
	c-0.764,0.093-1.549,0.163-2.333,0.235l0.956,0.055c4.484,5.414,13.441,19.726,14.912,22.391c1.594,2.882-0.369,5.433-1.631,6.377
	c-0.969,0.728-4.133,2.541-6.924,4.142c-4.748,2.723-8.959,4.838-9.643,5.52c-0.916,0.917-2.807,4.139-4.045,6.328
	c-1.906-1.288-5.048-3.876-5.929-7.406l19.638-12.281c0.416-0.271,0.704-0.703,0.797-1.191c0.092-0.489-0.018-0.995-0.303-1.402
	c-0.027-0.038-2.754-3.914-3.822-5.73c-0.559-0.947-1.602-2.712-1.959-4.974c-0.158-1.001-1.096-1.686-2.102-1.528
	c-1.002,0.161-1.686,1.1-1.527,2.103c0.467,2.953,1.789,5.192,2.422,6.264c0.697,1.183,1.979,3.083,2.9,4.424l-19.072,11.908
	c-0.574,0.378-0.891,1.047-0.816,1.733c0.84,7.783,9.271,12.102,9.629,12.281c0.266,0.133,0.547,0.197,0.824,0.197
	c0.65,0,1.279-0.348,1.611-0.955c1.643-2.996,3.774-6.587,4.334-7.149c0.577-0.514,6.252-3.438,8.891-4.951
	c3.162-1.815,6.148-3.526,7.301-4.39C253.121,111.366,255.021,106.813,252.683,102.583z"/>
<path fill="#3F2021" d="M97.865,157.219c-0.287,0-0.578-0.057-0.859-0.176c-34.539-14.636-61.047-34.083-69.385-45.726
	c-0.266-0.375-0.41-0.822-0.412-1.282l-0.006-6.084c-0.002-1.219,0.943-2.242,2.205-2.207c1.217,0,2.203,0.985,2.205,2.202
	l0.006,5.363c8.264,10.958,34.246,29.746,67.107,43.673c1.121,0.475,1.645,1.769,1.17,2.891
	C99.541,156.715,98.724,157.219,97.865,157.219z"/>
<path fill="#3F2021" d="M269.718,145.895h-1.684c-1.156,5.595-5.869,9.036-11.139,10.186c-0.107,0.022-0.213,0.048-0.32,0.069
	c-0.285,0.059-0.574,0.104-0.863,0.148c-0.23,0.035-0.463,0.064-0.695,0.09c-0.219,0.025-0.438,0.05-0.656,0.066
	c-0.477,0.036-0.955,0.061-1.439,0.061c-4.284,0-8.271-1.412-11.307-3.966c-3.779,1.18-8.008,2.393-11.479,3.162
	c-1.486,0.45-3.053,0.71-4.67,0.773c-0.262,0.018-0.512,0.031-0.736,0.031c-4.441,0-8.58-1.507-11.65-4.244
	c-1.393-1.242-3.494-1.243-4.889-0.001c-3.076,2.737-7.215,4.246-11.652,4.246c-4.442,0-8.58-1.507-11.651-4.244
	c-1.392-1.242-3.496-1.243-4.888-0.001c-3.074,2.737-7.213,4.246-11.656,4.246c-4.441,0-8.578-1.507-11.648-4.244
	c-1.393-1.242-3.496-1.243-4.889-0.001c-3.074,2.737-7.212,4.246-11.652,4.246c-4.443,0-8.58-1.507-11.65-4.244
	c-1.393-1.242-3.494-1.243-4.889-0.001c-3.076,2.737-7.215,4.246-11.654,4.246c-2.291,0-4.5-0.41-6.525-1.173
	c-3.004-0.877-6.299-2.157-9.406-3.505c-0.213,0.123-0.418,0.264-0.607,0.433c-3.075,2.737-7.213,4.246-11.652,4.246
	c-0.486,0-0.969-0.025-1.447-0.062c-0.221-0.016-0.441-0.042-0.662-0.066c-0.205-0.022-0.408-0.05-0.611-0.08
	c-5.729-0.871-11.041-4.67-12.764-13.438l-1.313,3.027l1.969,5.54c-0.305,0.064-0.607,0.148-0.891,0.286
	c0.783,2.558,0.926,5.475,2.336,7.62c0.219,0.333,0.357,0.691,0.46,1.056c3.799,2.255,8.256,3.47,12.922,3.47
	c5.154,0,10.057-1.479,14.096-4.208c4.041,2.729,8.941,4.208,14.096,4.208c5.154,0,10.055-1.479,14.097-4.208
	c4.038,2.729,8.94,4.208,14.096,4.208c5.152,0,10.053-1.479,14.096-4.208c4.039,2.729,8.939,4.208,14.094,4.208
	c5.156,0,10.059-1.479,14.1-4.208c4.037,2.729,8.939,4.208,14.096,4.208c5.152,0,10.055-1.479,14.096-4.208
	c4.039,2.729,8.939,4.208,14.096,4.208c5.152,0,10.055-1.479,14.094-4.208c4.039,2.729,8.941,4.208,14.098,4.208
	c4.557,0,8.906-1.167,12.648-3.321c-0.002-0.416,0.047-0.829,0.211-1.234c0.852-2.09,1.172-3.917,1.266-5.985l0.191-0.449
	L269.718,145.895z"/>
<g>
	<path fill="#3F2021" d="M592.177,103.884h33.104c4.672,0,6.746-0.621,11.312-3.736l7.158,9.963
		c-4.15,4.048-8.301,5.915-15.773,5.915h-5.188v47.84h-12.453v-47.84h-18.16V103.884z"/>
	<path fill="#3F2021" d="M651.492,163.866v-51.99c0-1.246-0.207-2.49-1.555-2.905h-3.529l4.359-11.105
		c10.688,0,12.762,6.954,12.762,11.727v11.623l12.766-3.32h3.527c9.443,0,14.32,6.537,14.32,13.904v18.16
		c0,1.246,0.209,2.491,1.557,2.906h3.529l-4.359,11c-10.791,0-12.764-6.85-12.764-11.623v-18.989c0-2.595-1.246-3.944-3.32-4.152
		l-15.256,4.046v30.718H651.492z"/>
	<path fill="#3F2021" d="M403.365,136.572h-0.104c0.623,0.727,1.244,1.765,1.766,2.803l5.084,10.688
		c0.52,1.142,1.971,1.971,3.527,1.971h3.84l-4.566,11.831h-2.904c-5.709,0-9.443-3.944-11.623-8.925
		c-2.18-4.461-4.773-9.962-6.85-14.423h-0.207c-3.84,1.037-7.68,2.282-11.52,3.32h-0.104v20.028h-12.348v-44.727
		c0-1.659-0.209-3.425-2.387-3.633h-3.113l4.67-11.622c11.207,0,13.178,7.472,13.178,12.763v14.633h0.311
		c5.396-1.555,10.898-3.321,16.189-4.877c4.877-1.66,7.057-2.698,7.057-5.5c0-3.32-1.764-5.085-6.641-5.085h-3.426l4.982-11.934
		c9.962,0,17.121,5.501,17.121,16.292C415.298,128.895,412.082,133.045,403.365,136.572z"/>
	<path fill="#3F2021" d="M551.906,102.64v15.255h13.387l-3.53,11.206h-9.857v20.858c0,1.246,0.311,2.491,1.557,2.906h11.207
		l-3.32,11h-6.848c-12.143,0-14.53-5.605-14.53-13.386v-21.378h-10.066l4.256-11.206h5.81v-10.17L551.906,102.64z"/>
	<path fill="#3F2021" d="M748.542,152.857c-1.248-0.414-1.457-1.658-1.459-2.904l-0.02-6.994c0-6.179-3.451-10.833-12.037-10.833
		v5.888v2.056v0.868c-0.062-0.066-5.759-6.004-14.428-5.99c-6.746,0.009-15.869,5.213-15.855,14.76
		c0.014,8.301,6.664,15.244,16.006,15.228c8.818-0.012,14.004-2.615,16.49-4.797c2.496,2.693,6.232,3.726,8.412,3.721l2.076-0.002
		l4.342-11.007L748.542,152.857z M721.458,153.833c-2.076,0.001-4.775-1.342-4.781-4.145c-0.004-3.216,2.797-3.739,4.768-3.744
		c3.426-0.004,7.061,2.584,9.451,5.279C728.72,152.887,725.609,153.826,721.458,153.833z"/>
	<path fill="#EE2737" d="M764.033,100.071c3.682,0,6.701,3.114,6.701,6.795c0,3.68-3.02,6.606-6.701,6.606s-6.605-2.927-6.605-6.606
		C757.427,103.185,760.351,100.071,764.033,100.071z"/>
	<path fill="#3F2021" d="M770.05,117.834v32.066c0,1.247,0.209,2.492,1.35,2.907h6.227l-4.463,10.999
		c-12.555,0-15.254-5.604-15.254-13.387v-32.585H770.05z"/>
	<path fill="#3F2021" d="M427.669,163.867v-51.99c0-1.245-0.207-2.49-1.555-2.906h-3.529l4.357-11.104
		c10.689,0,12.766,6.953,12.766,11.727v11.623l12.762-3.321h3.531c9.441,0,14.32,6.538,14.32,13.906v18.16
		c0,1.245,0.207,2.489,1.557,2.905h3.527l-4.357,11c-10.793,0-12.766-6.85-12.766-11.624v-18.989c0-2.593-1.244-3.942-3.32-4.15
		l-15.254,4.046v30.717H427.669z"/>
	<g>
		<path fill="#3F2021" d="M503.417,117.065c-16.188,0-22.828,10.066-22.828,17.123v13.488c0,7.058,6.641,17.227,22.828,17.227
			c17.434,0,22.727-10.169,22.727-17.227v-13.488C526.144,127.131,520.851,117.065,503.417,117.065z M514.107,146.123
			c0,5.084-3.631,7.471-10.689,7.471c-7.16,0-10.791-2.491-10.791-7.471v-10.378c0-4.98,3.631-7.369,10.791-7.471
			c7.059,0,10.689,2.387,10.689,7.471V146.123z"/>
		<g>
			<path fill="#EE2737" d="M504.152,112.604h15.18c-1.27-6.056-5.898-10.275-15.186-10.275v10.273
				C504.148,112.603,504.148,112.604,504.152,112.604z"/>
			<path fill="#EE2737" d="M510.656,112.604h-10.562c-6.693,0-11.514-2.053-11.514-12.499v-1.142l9.461-2.855V101
				c0.357,1.071,1.43,1.34,2.5,1.34l0,0L510.656,112.604z"/>
			<rect x="500.093" y="102.329" fill="#EE2737" width="4.053" height="10.275"/>
		</g>
	</g>
</g>
<g>
	<path fill="#3F2021" d="M370.674,204.675v2.895h6.429v2.725h-6.429v19.03h-3.278v-19.03H364.5v-2.725h2.895v-2.468
		c0-4.896,3.449-7.537,7.195-7.537c1.703,0.042,3.448,0.554,4.81,1.575l-1.362,2.682c-1.021-0.724-2.256-1.148-3.405-1.148
		C372.462,200.674,370.674,202.079,370.674,204.675z"/>
	<path fill="#3F2021" d="M401.795,218.085c0,6.727-4.725,11.367-11.367,11.367c-6.641,0-11.367-4.64-11.367-11.367
		c0-6.684,4.726-11.282,11.367-11.282C397.07,206.803,401.795,211.401,401.795,218.085z M382.383,218.127
		c0,4.938,3.363,8.345,8.046,8.345s8.046-3.406,8.046-8.345c0-4.896-3.363-8.302-8.046-8.302S382.383,213.231,382.383,218.127z"/>
	<path fill="#3F2021" d="M411.314,211.87c1.49-3.278,4.258-5.066,8.046-5.109v3.363c-4.726-0.085-7.663,2.853-8.046,7.28v11.92
		h-3.32v-22.436h3.32V211.87z"/>
	<path fill="#3F2021" d="M449.623,227.792c-1.575,1.063-3.278,1.66-5.066,1.703c-3.278,0-5.705-1.958-5.705-6.386v-12.814h-3.235
		v-2.682h3.235v-5.918h3.278v5.918l7.109-0.042v2.725h-7.109v12.218c0,2.725,1.064,3.747,2.98,3.747
		c1.149,0,2.341-0.383,3.576-1.149L449.623,227.792z"/>
	<path fill="#3F2021" d="M458.041,211.87c1.49-3.278,4.258-5.066,8.046-5.109v3.363c-4.726-0.085-7.663,2.853-8.046,7.28v11.92
		h-3.32v-22.436h3.32V211.87z"/>
	<path fill="#3F2021" d="M490.78,229.324h-3.32v-5.066c-1.49,3.491-4.47,5.151-8.515,5.194c-5.236,0-8.387-3.321-8.387-8.727
		v-13.837h3.321v12.942c0,3.96,2.341,6.301,6.215,6.301c4.641-0.085,7.365-3.448,7.365-8.217v-11.026h3.32V229.324z"/>
	<path fill="#3F2021" d="M518.617,219.405h-18.306c0.596,4.386,3.789,7.153,8.131,7.153c2.767,0,5.193-0.979,6.939-2.81l1.83,1.958
		c-2.128,2.384-5.279,3.747-9.025,3.747c-6.598,0-11.154-4.64-11.154-11.325c0-6.683,4.598-11.324,11.111-11.324
		C515.381,206.761,518.957,211.785,518.617,219.405z M515.637,216.68c-0.213-4.3-3.108-7.024-7.493-7.024
		c-4.257,0-7.322,2.767-7.833,7.024H515.637z"/>
	<path fill="#3F2021" d="M548.069,202.802v26.522h-3.406v-26.522h-9.707v-3.278h22.861v3.278H548.069z"/>
	<path fill="#3F2021" d="M583.285,215.489v13.835h-3.32v-12.942c0-3.959-2.384-6.301-6.343-6.301
		c-4.768,0.042-7.578,3.406-7.578,8.217v11.026h-3.321v-31.589h3.321v14.177c1.532-3.491,4.598-5.109,8.727-5.151
		C580.135,206.761,583.285,210.082,583.285,215.489z"/>
	<path fill="#3F2021" d="M604.987,225.876c-1.788,2.427-4.64,3.619-8.216,3.619c-4.64,0-7.62-2.98-7.62-6.854
		c0-3.917,3.107-6.387,8.387-6.43h7.365v-1.319c0-3.277-2.043-5.236-6.002-5.236c-2.47,0-4.769,0.937-7.109,2.554l-1.406-2.427
		c2.896-1.915,5.322-3.022,9.153-3.022c5.535,0,8.6,2.938,8.642,7.749l0.043,14.814h-3.236V225.876z M604.944,221.576v-2.682h-6.982
		c-3.746,0-5.705,1.149-5.705,3.618c0,2.469,2.001,4.087,5.151,4.087C601.198,226.6,604.093,224.684,604.944,221.576z"/>
	<path fill="#3F2021" d="M619.513,200.46c0,1.32-0.937,2.299-2.171,2.299s-2.171-0.979-2.171-2.299c0-1.32,0.937-2.299,2.171-2.299
		S619.513,199.14,619.513,200.46z M615.724,229.324v-22.436h3.278v22.436H615.724z"/>
	<path fill="#3F2021" d="M641.985,204.546c0-4.214,3.065-7.279,7.195-7.237c1.447,0.042,2.98,0.426,4.087,1.065l-0.086,3.107
		c-1.021-0.724-2.256-1.15-3.405-1.192c-2.555-0.042-4.513,1.958-4.513,4.727v2.426h6.429v2.682h-6.429v19.2h-3.278v-19.2h-2.895
		v-2.682h2.895V204.546z M658.972,229.324h-3.32v-31.589h3.32V229.324z"/>
	<path fill="#3F2021" d="M681.194,225.876c-1.788,2.427-4.64,3.619-8.217,3.619c-4.64,0-7.62-2.98-7.62-6.854
		c0-3.917,3.108-6.387,8.387-6.43h7.365v-1.319c0-3.277-2.043-5.236-6.003-5.236c-2.469,0-4.768,0.937-7.109,2.554l-1.405-2.427
		c2.896-1.915,5.322-3.022,9.153-3.022c5.534,0,8.6,2.938,8.643,7.749l0.042,14.814h-3.236V225.876z M681.151,221.576v-2.682h-6.982
		c-3.747,0-5.705,1.149-5.705,3.618c0,2.469,2,4.087,5.151,4.087C677.405,226.6,680.3,224.684,681.151,221.576z"/>
	<path fill="#3F2021" d="M696.699,229.324l-8.898-22.436h3.534l7.152,18.987l7.109-18.987h3.364l-8.813,22.436H696.699z"/>
	<path fill="#3F2021" d="M733.583,218.085c0,6.727-4.726,11.367-11.367,11.367c-6.642,0-11.367-4.64-11.367-11.367
		c0-6.684,4.726-11.282,11.367-11.282C728.858,206.803,733.583,211.401,733.583,218.085z M714.17,218.127
		c0,4.938,3.363,8.345,8.046,8.345c4.683,0,8.046-3.406,8.046-8.345c0-4.896-3.363-8.302-8.046-8.302
		C717.534,209.826,714.17,213.231,714.17,218.127z"/>
	<path fill="#3F2021" d="M759.556,229.324h-3.32v-5.066c-1.49,3.491-4.47,5.151-8.515,5.194c-5.236,0-8.387-3.321-8.387-8.727
		v-13.837h3.321v12.942c0,3.96,2.342,6.301,6.215,6.301c4.641-0.085,7.366-3.448,7.366-8.217v-11.026h3.32V229.324z"/>
	<path fill="#3F2021" d="M770.845,211.87c1.49-3.278,4.257-5.066,8.046-5.109v3.363c-4.725-0.085-7.663,2.853-8.046,7.28v11.92
		h-3.321v-22.436h3.321V211.87z"/>
</g>
<path fill="#3F2021" d="M734.509,117.833L734.509,117.833l-1.625,0.001c-0.093-0.001-0.18-0.01-0.273-0.01l-6.538,0.01h-0.236l0,0
	h-0.387c-3.945,0.006-5.502-0.51-9.76-3.408l-6.629,9.124c3.846,3.833,7.273,5.593,14.121,5.582l2.816-0.005h5.383
	c0.022,0.003,0.044,0.005,0.069,0.006h1.129h1.93h0.51h1.75h4.018h6.039h0.238C747.064,122.688,743.464,117.833,734.509,117.833z"/>
</svg>
