<?xml version="1.0" encoding="utf-8"?>
<!-- Generator: Adobe Illustrator 15.0.2, SVG Export Plug-In . SVG Version: 6.00 Build 0)  -->
<!DOCTYPE svg PUBLIC "-//W3C//DTD SVG 1.1//EN" "http://www.w3.org/Graphics/SVG/1.1/DTD/svg11.dtd">
<svg version="1.1" id="Layer_1" xmlns="http://www.w3.org/2000/svg" xmlns:xlink="http://www.w3.org/1999/xlink" x="0px" y="0px"
	 width="417.035px" height="385.354px" viewBox="0 0 417.035 385.354" enable-background="new 0 0 417.035 385.354"
	 xml:space="preserve">
<path fill="#EE2737" d="M207.78,210.054c-41.676,0-77.617-24.927-93.758-60.648c2.805,1.036,5.83,1.591,8.956,1.591
	c5.155,0,10.06-1.477,14.103-4.208c4.04,2.731,8.943,4.208,14.101,4.208c5.155,0,10.06-1.477,14.104-4.208
	c4.04,2.731,8.943,4.208,14.103,4.208c5.156,0,10.059-1.477,14.102-4.208c4.041,2.731,8.944,4.208,14.103,4.208
	c5.156,0,10.062-1.477,14.104-4.208c4.04,2.731,8.943,4.208,14.102,4.208c5.155,0,10.06-1.477,14.103-4.208
	c4.042,2.731,8.945,4.208,14.101,4.208c5.157,0,10.06-1.477,14.103-4.208c4.041,2.731,8.945,4.208,14.103,4.208
	c3.29,0,6.468-0.617,9.392-1.763C285.496,185.042,249.522,210.054,207.78,210.054z"/>
<path fill="#3F2021" d="M137.853,188.425c18.785,16.205,43.234,26.017,69.933,26.017c50.096,0,92.265-34.537,103.977-81.048
	c-1.561,0.143-3.104-0.825-4.002-2.265c-10.809,45.194-51.516,78.903-99.975,78.903c-49.851,0-91.515-35.671-100.845-82.826
	c-0.057-0.019-0.108-0.026-0.164-0.046c-1.997-0.792-3.622-1.822-4.882-3.117C105.944,149.621,119.067,172.222,137.853,188.425"/>
<path fill="#3F2021" d="M245.496,102.244c-0.806-0.03-1.577-0.42-2.114-1.016c-0.611,2.452-1.241,4.917-1.693,6.657
	c-0.255,0.982,0.334,1.983,1.316,2.24c0.155,0.04,0.31,0.059,0.464,0.059c0.816,0,1.562-0.548,1.777-1.376
	c0.062-0.235,0.761-2.936,1.54-6.045C246.276,102.691,245.841,102.514,245.496,102.244z"/>
<path fill="#3F2021" d="M102.596,107.783c-1.014,0-1.836-0.821-1.837-1.835l-0.01-8.999c-0.001-1.017,0.764-1.802,1.836-1.84
	c1.015,0,1.837,0.821,1.838,1.836l0.01,8.998c0.001,1.015-0.82,1.838-1.835,1.84C102.598,107.783,102.597,107.783,102.596,107.783z"
	/>
<path fill="#3F2021" d="M308.465,130.677c-0.314-0.038-0.628-0.088-0.943-0.122c-0.985-0.104-1.865-0.552-2.402-1.28
	c-0.032-0.014-0.064-0.03-0.096-0.045c-7.249,4.357-15.712,8.13-25.485,10.875c-1.173,0.329-1.856,1.545-1.527,2.719
	c0.272,0.972,1.157,1.609,2.122,1.609c0.197,0,0.397-0.027,0.597-0.083c11.283-3.168,20.915-7.667,29.013-12.876
	C309.375,131.184,308.943,130.918,308.465,130.677z"/>
<path fill="#EE2737" d="M106.332,90.642C114.285,41.81,156.742,4.41,207.786,4.41c54.703,0,99.551,42.947,102.629,96.892
	c1.43-0.431,3.156-0.177,4.461,0.756C312.171,45.324,265.177,0,207.786,0c-53.206,0-97.465,38.962-105.792,89.851
	C103.463,89.436,105.143,89.696,106.332,90.642z"/>
<path fill="#3F2021" d="M156.637,102.544c-0.109,0-0.222-0.009-0.333-0.026c-1.205-0.181-2.032-1.306-1.85-2.51
	c0.149-0.986,0.226-1.996,0.226-3.004c0-10.943-8.902-19.846-19.845-19.846c-9.095,0-17.006,6.148-19.237,14.954
	c-0.3,1.179-1.499,1.894-2.679,1.595c-1.181-0.3-1.895-1.499-1.596-2.68c2.728-10.761,12.396-18.277,23.512-18.277
	c13.374,0,24.255,10.879,24.255,24.254c0,1.228-0.093,2.461-0.275,3.667C158.65,101.762,157.709,102.544,156.637,102.544z"/>
<path fill="#3F2021" d="M181.318,106.563c-0.017,0-0.034,0-0.052,0c-1.217-0.03-2.182-1.039-2.153-2.255l0.006-0.506
	c0-10.943-8.902-19.845-19.845-19.845c-2.283,0-4.521,0.382-6.65,1.141c-1.146,0.407-2.408-0.19-2.816-1.34
	c-0.408-1.145,0.191-2.407,1.339-2.816c2.605-0.926,5.34-1.396,8.128-1.396c13.374,0,24.255,10.881,24.255,24.255l-0.007,0.608
	C183.495,105.611,182.512,106.563,181.318,106.563z"/>
<path fill="#3F2021" d="M206.02,109.511c-1.021,0-1.937-0.712-2.156-1.75c-1.926-9.109-10.091-15.721-19.416-15.721
	c-2.219,0-4.396,0.364-6.472,1.078c-1.151,0.398-2.407-0.213-2.804-1.365c-0.396-1.15,0.214-2.406,1.365-2.803
	c2.54-0.875,5.201-1.318,7.91-1.318c11.396,0,21.377,8.082,23.73,19.217c0.252,1.191-0.51,2.362-1.7,2.612
	C206.324,109.495,206.17,109.511,206.02,109.511z"/>
<g>
	<path fill="#EE2737" d="M355.449,197.803c-5.236,0-9.729,3.732-10.684,8.874c-0.015,0.077-0.025,0.155-0.029,0.233
		c-0.973,7.252-7.195,12.699-14.54,12.699s-13.567-5.447-14.539-12.699c-0.005-0.078-0.016-0.156-0.031-0.233
		c-0.954-5.142-5.447-8.874-10.684-8.874c-3.758,0-6.816,3.059-6.816,6.817c0,3.758,3.059,6.815,6.816,6.815
		c1.137,0,2.058-0.921,2.058-2.057s-0.921-2.057-2.058-2.057c-1.49,0-2.703-1.211-2.703-2.702s1.213-2.704,2.703-2.704
		c3.219,0,5.985,2.267,6.62,5.406c1.185,9.354,9.185,16.402,18.634,16.402c9.45,0,17.45-7.048,18.634-16.402
		c0.635-3.14,3.401-5.406,6.619-5.406c1.491,0,2.703,1.213,2.703,2.704s-1.212,2.702-2.703,2.702c-1.136,0-2.057,0.921-2.057,2.057
		s0.921,2.057,2.057,2.057c3.759,0,6.816-3.058,6.816-6.815C362.265,200.861,359.208,197.803,355.449,197.803z"/>
	<path fill="#EE2737" d="M335.9,174.075c0.167,0.053,0.335,0.078,0.501,0.078c0.696,0,1.344-0.445,1.567-1.143
		c0.256-0.803,0.386-1.64,0.386-2.486c0-2.843-1.443-5.436-3.86-6.938c-0.078-0.049-0.159-0.088-0.239-0.122
		c-1.496-0.871-2.414-2.462-2.414-4.204c0-0.907-0.736-1.646-1.646-1.646c-0.908,0-1.645,0.738-1.645,1.646
		c0,1.637-0.808,3.14-2.165,4.047c-2.684,1.42-4.348,4.177-4.348,7.217c0,0.846,0.129,1.683,0.386,2.485
		c0.277,0.866,1.202,1.344,2.068,1.067c0.866-0.277,1.343-1.202,1.067-2.068c-0.153-0.479-0.23-0.979-0.23-1.484
		c0-1.79,0.963-3.412,2.528-4.271c0.072-0.034,0.144-0.073,0.214-0.114c0.833-0.535,1.549-1.2,2.124-1.96
		c0.711,0.938,1.631,1.729,2.715,2.302c1.352,0.907,2.153,2.406,2.153,4.042c0,0.505-0.077,1.005-0.23,1.484
		C334.556,172.873,335.034,173.798,335.9,174.075z"/>
	<path fill="#EE2737" d="M324.494,200c-0.866-0.275-1.791,0.201-2.068,1.066c-0.257,0.802-0.387,1.639-0.387,2.487
		c0,2.841,1.442,5.435,3.86,6.935c0.078,0.049,0.158,0.09,0.24,0.125c1.494,0.871,2.413,2.462,2.413,4.203
		c0,0.908,0.736,1.646,1.646,1.646c0.908,0,1.646-0.737,1.646-1.646c0-1.636,0.807-3.14,2.162-4.047
		c2.685-1.42,4.35-4.177,4.35-7.216c0-0.846-0.13-1.682-0.386-2.486c-0.275-0.866-1.2-1.343-2.066-1.067
		c-0.865,0.277-1.345,1.201-1.068,2.067c0.152,0.479,0.23,0.979,0.23,1.486c0,1.784-0.965,3.409-2.526,4.269
		c-0.073,0.031-0.146,0.072-0.217,0.117c-0.834,0.531-1.548,1.197-2.124,1.958c-0.711-0.94-1.629-1.731-2.716-2.302
		c-1.352-0.909-2.152-2.406-2.152-4.042c0-0.507,0.076-1.007,0.229-1.486C325.834,201.204,325.359,200.277,324.494,200z"/>
	<path fill="#EE2737" d="M317.273,181.183c-4.594,0-8.33,3.738-8.33,8.331c0,4.593,3.736,8.328,8.33,8.328
		c1.136,0,2.057-0.921,2.057-2.057c0-1.135-0.921-2.057-2.057-2.057c-2.325,0-4.217-1.891-4.217-4.215
		c0-2.326,1.892-4.217,4.217-4.217c1.269,0,2.194,0.574,2.747,1.053c0.535,0.466,1.271,0.623,1.949,0.416
		c0.678-0.205,1.202-0.746,1.387-1.429c0.834-3.086,3.646-5.243,6.84-5.243s6.006,2.156,6.84,5.243
		c0.186,0.683,0.709,1.225,1.387,1.429c0.679,0.208,1.414,0.051,1.949-0.416c0.553-0.479,1.478-1.053,2.748-1.053
		c2.324,0,4.215,1.892,4.215,4.217c0,2.324-1.891,4.215-4.215,4.215c-1.137,0-2.058,0.922-2.058,2.057
		c0,1.136,0.921,2.057,2.058,2.057c4.593,0,8.329-3.735,8.329-8.328c0-4.593-3.736-8.331-8.329-8.331
		c-1.067,0-2.121,0.213-3.104,0.615c-1.934-3.521-5.674-5.819-9.819-5.819s-7.885,2.298-9.818,5.819
		C319.393,181.396,318.339,181.183,317.273,181.183z"/>
	<circle fill="#3F2021" cx="330.196" cy="170.452" r="2.35"/>
	<path fill="#3F2021" d="M332.546,203.203c0-1.301-1.052-2.35-2.351-2.35s-2.35,1.049-2.35,2.35c0,1.297,1.051,2.35,2.35,2.35
		S332.546,204.5,332.546,203.203z"/>
</g>
<g>
	<path fill="#EE2737" d="M59.308,197.803c5.236,0,9.729,3.732,10.684,8.874c0.015,0.077,0.025,0.155,0.03,0.233
		c0.972,7.252,7.195,12.699,14.54,12.699c7.344,0,13.566-5.447,14.538-12.699c0.005-0.078,0.016-0.156,0.03-0.233
		c0.955-5.142,5.448-8.874,10.685-8.874c3.758,0,6.816,3.059,6.816,6.817c0,3.758-3.059,6.815-6.816,6.815
		c-1.137,0-2.058-0.921-2.058-2.057s0.921-2.057,2.058-2.057c1.49,0,2.703-1.211,2.703-2.702s-1.213-2.704-2.703-2.704
		c-3.219,0-5.985,2.267-6.62,5.406c-1.185,9.354-9.185,16.402-18.633,16.402c-9.45,0-17.45-7.048-18.634-16.402
		c-0.635-3.14-3.402-5.406-6.62-5.406c-1.491,0-2.703,1.213-2.703,2.704s1.212,2.702,2.703,2.702c1.136,0,2.057,0.921,2.057,2.057
		s-0.921,2.057-2.057,2.057c-3.759,0-6.816-3.058-6.816-6.815C52.492,200.861,55.549,197.803,59.308,197.803z"/>
	<path fill="#EE2737" d="M78.858,174.075c-0.167,0.053-0.335,0.078-0.502,0.078c-0.695,0-1.344-0.445-1.566-1.143
		c-0.257-0.803-0.387-1.64-0.387-2.486c0-2.843,1.444-5.436,3.861-6.938c0.078-0.049,0.158-0.088,0.239-0.122
		c1.496-0.871,2.413-2.462,2.413-4.204c0-0.907,0.738-1.646,1.646-1.646s1.645,0.738,1.645,1.646c0,1.637,0.808,3.14,2.165,4.047
		c2.684,1.42,4.348,4.177,4.348,7.217c0,0.846-0.13,1.683-0.386,2.485c-0.277,0.866-1.202,1.344-2.068,1.067
		c-0.866-0.277-1.344-1.202-1.067-2.068c0.153-0.479,0.23-0.979,0.23-1.484c0-1.79-0.964-3.412-2.528-4.271
		c-0.072-0.034-0.145-0.073-0.214-0.114c-0.833-0.535-1.548-1.2-2.124-1.96c-0.711,0.938-1.63,1.729-2.715,2.302
		c-1.352,0.907-2.153,2.406-2.153,4.042c0,0.505,0.078,1.005,0.23,1.484C80.201,172.873,79.723,173.798,78.858,174.075z"/>
	<path fill="#EE2737" d="M90.263,200c0.866-0.275,1.791,0.201,2.068,1.066c0.257,0.802,0.387,1.639,0.387,2.487
		c0,2.841-1.442,5.435-3.86,6.935c-0.078,0.049-0.158,0.09-0.24,0.125c-1.494,0.871-2.413,2.462-2.413,4.203
		c0,0.908-0.736,1.646-1.645,1.646c-0.909,0-1.646-0.737-1.646-1.646c0-1.636-0.807-3.14-2.164-4.047
		c-2.684-1.42-4.349-4.177-4.349-7.216c0-0.846,0.131-1.682,0.386-2.486c0.276-0.866,1.2-1.343,2.066-1.067
		c0.866,0.277,1.345,1.201,1.068,2.067c-0.152,0.479-0.229,0.979-0.229,1.486c0,1.784,0.964,3.409,2.526,4.269
		c0.073,0.031,0.146,0.072,0.216,0.117c0.835,0.531,1.549,1.197,2.125,1.958c0.71-0.94,1.628-1.731,2.715-2.302
		c1.351-0.909,2.152-2.406,2.152-4.042c0-0.507-0.076-1.007-0.229-1.486C88.921,201.204,89.398,200.277,90.263,200z"/>
	<path fill="#EE2737" d="M97.484,181.183c4.594,0,8.33,3.738,8.33,8.331c0,4.593-3.736,8.328-8.33,8.328
		c-1.136,0-2.057-0.921-2.057-2.057c0-1.135,0.921-2.057,2.057-2.057c2.325,0,4.217-1.891,4.217-4.215
		c0-2.326-1.892-4.217-4.217-4.217c-1.27,0-2.194,0.574-2.747,1.053c-0.535,0.466-1.271,0.623-1.949,0.416
		c-0.678-0.205-1.203-0.746-1.387-1.429c-0.834-3.086-3.646-5.243-6.839-5.243c-3.194,0-6.007,2.156-6.841,5.243
		c-0.185,0.683-0.709,1.225-1.387,1.429c-0.677,0.208-1.413,0.051-1.949-0.416c-0.552-0.479-1.477-1.053-2.747-1.053
		c-2.325,0-4.216,1.892-4.216,4.217c0,2.324,1.891,4.215,4.216,4.215c1.136,0,2.057,0.922,2.057,2.057
		c0,1.136-0.921,2.057-2.057,2.057c-4.593,0-8.33-3.735-8.33-8.328c0-4.593,3.737-8.331,8.33-8.331c1.066,0,2.12,0.213,3.104,0.615
		c1.934-3.521,5.673-5.819,9.819-5.819c4.145,0,7.884,2.298,9.817,5.819C95.364,181.396,96.417,181.183,97.484,181.183z"/>
	<circle fill="#3F2021" cx="84.561" cy="170.452" r="2.35"/>
	<path fill="#3F2021" d="M82.211,203.203c0-1.301,1.052-2.35,2.351-2.35c1.298,0,2.349,1.049,2.349,2.35
		c0,1.297-1.051,2.35-2.349,2.35C83.263,205.553,82.211,204.5,82.211,203.203z"/>
</g>
<g>
	<path fill="#3F2021" d="M257.293,65.529c-1.022-0.096-2.043-0.161-3.051-0.121c-0.439,0.017-0.813-0.124-1.132-0.362
		c-0.471,5.07-0.655,9.813-0.071,12.25c1.613,6.771,6.985-5.855,6.99-5.865C258.685,71.215,257.676,68.833,257.293,65.529z"/>
	<path fill="#3F2021" d="M263.588,66.145c-0.8,3.336-2.159,5.511-3.559,5.287c0.004,0.011,3.6,12.88,6.624,7.458
		c1.257-2.257,2.018-7.799,2.479-13.502C267.315,66.066,265.458,66.219,263.588,66.145z"/>
</g>
<path fill="#3F2021" d="M263.983,173.838c-5.186,0-10.103-1.535-14.096-4.364c-3.997,2.83-8.914,4.364-14.098,4.364
	c-5.185,0-10.102-1.535-14.095-4.364c-3.995,2.83-8.913,4.364-14.098,4.364s-10.103-1.535-14.096-4.364
	c-3.995,2.83-8.913,4.364-14.095,4.364c-5.187,0-10.103-1.535-14.096-4.364c-3.996,2.83-8.914,4.364-14.098,4.364
	c-6.065,0-11.766-2.102-16.05-5.919c-1.213-1.081-1.319-2.938-0.239-4.15c1.081-1.212,2.938-1.32,4.151-0.239
	c3.205,2.856,7.517,4.43,12.138,4.43c4.622,0,8.935-1.574,12.144-4.43c1.115-0.994,2.797-0.994,3.911,0
	c3.204,2.858,7.516,4.43,12.139,4.43c4.621,0,8.933-1.574,12.141-4.43c1.115-0.994,2.798-0.994,3.912,0
	c3.204,2.856,7.515,4.43,12.139,4.43c4.623,0,8.935-1.574,12.144-4.43c1.114-0.994,2.796-0.994,3.911,0
	c3.205,2.856,7.515,4.43,12.138,4.43c4.621,0,8.934-1.574,12.143-4.43c1.115-0.994,2.797-0.994,3.911,0
	c3.204,2.856,7.516,4.43,12.14,4.43c4.62,0,8.932-1.574,12.139-4.43c1.213-1.081,3.07-0.973,4.151,0.24
	c1.08,1.212,0.972,3.069-0.241,4.149C275.747,171.736,270.046,173.838,263.983,173.838z"/>
<path fill="#3F2021" d="M222.39,197.245c-5.182,0-10.099-1.537-14.095-4.366c-3.998,2.829-8.914,4.366-14.096,4.366
	c-6.064,0-11.764-2.104-16.052-5.919c-1.212-1.082-1.32-2.939-0.241-4.152c1.08-1.211,2.938-1.318,4.15-0.241
	c3.21,2.857,7.522,4.432,12.143,4.432c4.618,0,8.931-1.575,12.14-4.432c1.115-0.991,2.796-0.991,3.91,0
	c3.21,2.857,7.521,4.432,12.141,4.432c4.622,0,8.934-1.573,12.141-4.432c1.213-1.077,3.071-0.971,4.151,0.241
	c1.08,1.213,0.973,3.071-0.24,4.15C234.158,195.141,228.457,197.245,222.39,197.245z"/>
<path fill="#58585A" d="M247.571,159.519"/>
<path fill="#3F2021" d="M93.153,104.405c-1.218,0-2.205-0.989-2.205-2.206V87.656c0-0.89,0.533-1.691,1.354-2.034
	c0.82-0.343,1.766-0.161,2.398,0.462l9.434,9.291c0.868,0.855,0.879,2.251,0.024,3.119c-0.854,0.869-2.251,0.878-3.118,0.025
	l-5.682-5.598v9.277C95.358,103.416,94.371,104.405,93.153,104.405z"/>
<path fill="#3F2021" d="M291.035,122.981c-0.778-0.134-1.378-0.511-1.798-1.03c-3.02,0.705-6.198,1.364-9.571,1.975
	c-27.375,4.971-74.352,6.491-124.095-4.15c-44.995-9.625-85.492-30.438-85.896-30.646c-1.081-0.56-2.412-0.137-2.972,0.945
	c-0.561,1.082-0.138,2.412,0.943,2.972c0.408,0.211,41.41,21.29,87.002,31.042c27.329,5.846,53.85,8.063,76.837,8.063
	c19.383,0,36.255-1.577,48.969-3.885c4.396-0.798,8.488-1.673,12.321-2.629C291.84,125.018,291.276,124.042,291.035,122.981z"/>
<path fill="#3F2021" d="M277.97,118.339c-2.33-0.432-3.282-2.143-3.225-3.936c-11.749,1.333-24.534,2.055-38.306,2.114
	c-60.982,0.262-121.64-18.008-133.186-21.671c-1.161-0.368-2.401,0.272-2.77,1.434c-0.369,1.161,0.274,2.4,1.434,2.769
	c11.575,3.674,72.05,21.882,133.22,21.882c0.437,0,0.884-0.001,1.319-0.003c15.18-0.066,29.219-0.914,41.991-2.514
	C278.29,118.387,278.129,118.368,277.97,118.339z"/>
<path fill="#3F2021" d="M338.178,96.28c-0.88-0.842-2.308-0.841-3.117,0.068c-7.098,7.969-27.887,14.303-42.855,18.236
	c0.285,0.136,0.559,0.307,0.8,0.534c1.2,1.126,2.477,2.03,4.029,2.367c0.214,0.048,0.412,0.125,0.6,0.221
	c14.957-4.03,31.672-9.311,40.612-18.308C339.105,98.534,339.058,97.122,338.178,96.28z"/>
<path fill="#3F2021" d="M260.422,109.858c-0.464-0.589-0.703-1.343-0.659-2.104c-2.423,0.138-4.896,0.26-7.47,0.35
	c-48.311,1.656-102.608-9.745-158.648-22.598c-1.188-0.271-2.369,0.471-2.642,1.657c-0.272,1.187,0.469,2.37,1.657,2.643
	c56.335,12.919,110.949,24.38,159.785,22.704c2.953-0.1,5.776-0.247,8.537-0.412C260.519,111.465,260.332,110.647,260.422,109.858z"
	/>
<path fill="#3F2021" d="M340.311,94.052c-0.41-0.599-1.091-0.957-1.817-0.957l-8.555,0.009c-0.284,0-0.567,0.055-0.832,0.162
	l-1.224,0.507c-6.837,2.841-22.886,9.493-52.631,12.721c0.012,0.006,0.025,0.01,0.037,0.018c0.639,0.408,1.283,0.812,1.951,1.17
	c0.337,0.183,0.675,0.364,1.023,0.525c0.065,0.03,0.109,0.048,0.149,0.067c0.132,0.05,0.265,0.101,0.398,0.146
	c0.927,0.322,1.653,1,1.978,1.849c27.138-3.466,42.18-9.681,48.786-12.423l0.805-0.333l4.78-0.005
	c-4.101,8.834-11.709,18.622-23.098,27.007c0.872,0.083,1.518,0.485,1.938,1.057c0.849,0.265,1.559,0.802,1.913,1.586
	c12.753-9.728,20.821-21.167,24.638-31.065C340.812,95.415,340.723,94.651,340.311,94.052z"/>
<path fill="#3F2021" d="M249.334,76.488c-1.004-0.067-1.886,0.703-1.95,1.714c-0.24,3.722-1.259,9.803-1.803,13.069l-0.265,1.6
	c-0.012,0.076-0.029,0.171-0.047,0.267c0.216-0.048,0.447-0.075,0.695-0.075c1.444,0,2.335,0.852,2.681,1.906
	c0.135-0.625,0.242-1.16,0.3-1.522l0.26-1.569c0.558-3.332,1.594-9.53,1.845-13.439C251.117,77.426,250.348,76.554,249.334,76.488z"
	/>
<path fill="#3F2021" d="M229.013,87.266c-0.839,0-1.597-0.578-1.79-1.431c-0.225-0.989,0.396-1.974,1.386-2.197
	c6.487-1.471,17.983-4.233,18.953-4.487c0.983-0.256,1.986,0.332,2.242,1.313c0.257,0.982-0.331,1.986-1.313,2.243
	c-0.976,0.253-12.525,3.031-19.069,4.514C229.285,87.251,229.148,87.266,229.013,87.266z"/>
<path fill="#3F2021" d="M248.429,64.576c-1.005-0.254-1.607-0.867-1.894-1.598c-2.984,2.414-7.817,6.038-10.419,6.838
	c-3.924,1.207-13.434,4.201-18.127,5.678l-0.924,0.292c-0.968,0.305-1.507,1.337-1.201,2.305c0.304,0.967,1.336,1.505,2.304,1.201
	L219.093,79c4.688-1.475,14.186-4.466,18.104-5.671c3.928-1.208,10.479-6.498,12.77-8.413
	C249.455,64.802,248.931,64.703,248.429,64.576z"/>
<path fill="#3F2021" d="M264.252,67.658c-1.161-0.045-2.316-0.114-3.45-0.212c-11.868-1.023-21.628-4.796-25.675-7.871
	c-0.562-0.425-0.813-1.146-0.644-1.83c0.168-0.682,0.729-1.202,1.424-1.317c0.126-0.02,12.531-2.187,15.919-11.603
	c0.231-0.646,0.819-1.1,1.504-1.161c0.121-0.011,3.016-0.263,7.062-0.106c4.287,0.168,10.485,0.841,15.661,3.088
	c0.614,0.267,1.026,0.858,1.061,1.529c0.024,0.417,0.708,10.412,10.85,14.726c0.727,0.308,1.159,1.061,1.062,1.844
	c-0.1,0.785-0.705,1.406-1.486,1.526C287.05,66.347,275.416,68.095,264.252,67.658z M240.728,58.779
	c4.353,2.085,11.521,4.387,20.378,5.149c7.281,0.628,15.524,0.029,20.727-0.514c-6.162-4.673-7.728-11.267-8.119-13.914
	c-4.485-1.726-9.735-2.268-13.459-2.414c-2.398-0.094-4.39-0.032-5.541,0.025C251.735,53.934,245.122,57.263,240.728,58.779z"/>
<g>
	<path fill="#3F2021" d="M272.551,61.562c-0.264-0.036-0.525-0.133-0.762-0.296c-3.416-2.347-4.145-7.1-4.037-9.539
		c0.043-0.974,0.867-1.729,1.842-1.686c0.971,0.044,1.728,0.867,1.686,1.841c-0.057,1.282,0.283,4.943,2.51,6.475
		c0.803,0.552,1.008,1.651,0.454,2.454C273.855,61.379,273.192,61.649,272.551,61.562z"/>
</g>
<g>
	<path fill="#3F2021" d="M260.208,110.479c-0.757-1.112-0.419-2.635,0.477-3.558l-45.86-21.609c0.188,0.578,0.227,1.202,0.078,1.738
		c-0.228,0.828-0.722,1.39-1.352,1.724l47.03,22.161C260.457,110.782,260.323,110.647,260.208,110.479z"/>
	<path fill="#3F2021" d="M367.103,141.795c-0.493-2.351-2.123-4.295-4.47-5.336c-1.555-0.687-15.538-7.196-18.493-8.592
		c-1.402-0.662-2.708-1.07-3.995-1.251c-0.479-0.066-0.96-0.1-1.43-0.1c-2.752,0-5.306,1.17-7.19,3.293l-0.364,0.418
		c-0.393,0.454-0.693,0.775-0.899,0.969c-0.032-0.016-0.067-0.03-0.106-0.049l-46.62-22.069c-0.052-0.024-0.104-0.046-0.156-0.07
		l-7.02-3.311c-0.236,0.618-1.005-0.174-1.591,0.232c-0.262,0.182-0.266,0.554-0.527,0.735c0.075-0.029-1.09,0.63-1.172,0.734
		c-0.061,0.078-1.033,0.208-1.103,0.276l9.99,4.727c0,0.001,0.001,0.001,0.001,0.001c0.002,0,0.002-0.001,0.005-0.002l46.636,22.076
		c0.507,0.237,0.983,0.39,1.42,0.449c0.147,0.022,0.29,0.031,0.428,0.031c1.366,0,2.323-0.974,3.487-2.317l0.34-0.391
		c1.204-1.356,2.728-2.058,4.442-2.058c0.301,0,0.608,0.021,0.921,0.064c0.914,0.129,1.874,0.434,2.934,0.934
		c2.803,1.325,16.923,7.9,18.573,8.629c1.271,0.565,2.112,1.535,2.363,2.73c0.347,1.651-0.431,3.494-2.385,5.635
		c-0.44,0.486-0.804,0.88-1.129,1.233c0.599,0.595,0.794,1.521,0.414,2.327c-0.352,0.747-1.091,1.183-1.863,1.183
		c-0.094,0-0.188-0.007-0.281-0.019c-0.2-0.03-0.401-0.087-0.594-0.179l-1.886-0.891c-0.002,0-0.002,0-0.002,0l-28.927-13.636
		c-0.003-0.001-0.007-0.002-0.011-0.002c0,0-0.002-0.003-0.003-0.003l-43.537-20.602l-13.705-6.469
		c-0.011,0.08-0.014,0.158-0.03,0.24c-0.24,1.103-0.915,2.376-2.015,2.857l14.182,6.693l43.444,20.559
		c0.071,0.038,0.144,0.07,0.217,0.1l28.817,13.586c0.027,0.014,0.057,0.027,0.085,0.04l1.803,0.85
		c0.51,0.243,1.064,0.41,1.639,0.494c0.276,0.038,0.541,0.056,0.804,0.056c2.207,0,4.244-1.29,5.187-3.287
		c0.465-0.989,0.626-2.063,0.505-3.102C366.74,147.308,367.68,144.547,367.103,141.795z"/>
	<path fill="#3F2021" d="M200.63,76.348c0.35-0.745,1.091-1.182,1.863-1.182c0.293,0,0.59,0.064,0.874,0.197l58.971,27.787
		c-0.199-1.17,0.431-2.482,1.436-3.069c0.111-0.066,0.226-0.108,0.339-0.156l-59.179-27.887c-0.768-0.361-1.59-0.545-2.44-0.545
		c-2.214,0-4.251,1.293-5.19,3.294c-0.649,1.375-0.726,2.931-0.208,4.375c0.518,1.442,1.565,2.596,2.952,3.25l6.688,3.151
		c-0.171-0.713-0.089-1.485,0.306-2.159c0.305-0.52,0.757-0.914,1.275-1.161l-6.703-3.159
		C200.585,78.602,200.145,77.376,200.63,76.348z"/>
</g>
<path fill="#3F2021" d="M212.164,93.229C212.163,93.229,212.163,93.229,212.164,93.229c-2.23-0.001-5.467-1.23-7.071-3.51
	c-1.005-1.428-1.242-3.098-0.666-4.705c0.93-2.592,3.036-4.076,5.778-4.076c2.17,0,4.531,0.999,6.016,2.545
	c1.029,1.074,1.542,2.373,1.484,3.753c-0.103,2.48-1.967,4.384-2.763,5.086C214.274,92.916,213.312,93.229,212.164,93.229z
	 M210.205,84.613c-1.55,0-2.066,0.937-2.318,1.643c-0.175,0.486-0.111,0.89,0.211,1.349c0.81,1.15,2.792,1.951,4.066,1.951l0,0
	c0.316,0,0.443-0.055,0.443-0.055c0.637-0.579,1.392-1.601,1.426-2.417c0.011-0.255-0.033-0.604-0.465-1.056
	C212.768,85.194,211.385,84.613,210.205,84.613z"/>
<path fill="#3F2021" d="M291.935,89.72c-1.718-3.109-10.859-17.586-14.618-22.135c-0.469,0.637-1.178,1.115-2.135,1.23
	c-0.764,0.093-1.549,0.163-2.333,0.236l0.956,0.055c4.484,5.414,13.44,19.726,14.912,22.391c1.594,2.882-0.37,5.432-1.631,6.377
	c-0.97,0.727-4.133,2.542-6.924,4.142c-4.748,2.723-8.959,4.838-9.643,5.52c-0.917,0.917-2.808,4.139-4.045,6.328
	c-1.907-1.288-5.049-3.875-5.93-7.406l19.639-12.281c0.416-0.273,0.703-0.704,0.796-1.193c0.093-0.487-0.017-0.994-0.302-1.401
	c-0.027-0.038-2.754-3.914-3.823-5.732c-0.559-0.947-1.601-2.711-1.958-4.973c-0.158-1.001-1.097-1.686-2.102-1.527
	c-1.002,0.159-1.687,1.099-1.527,2.101c0.467,2.953,1.788,5.193,2.422,6.265c0.696,1.183,1.977,3.083,2.9,4.423l-19.072,11.908
	c-0.575,0.379-0.893,1.049-0.817,1.734c0.841,7.783,9.271,12.102,9.63,12.281c0.265,0.133,0.545,0.196,0.823,0.196
	c0.65,0,1.279-0.348,1.612-0.955c1.642-2.997,3.772-6.588,4.334-7.149c0.576-0.515,6.251-3.438,8.891-4.951
	c3.162-1.815,6.148-3.526,7.3-4.39C292.374,98.503,294.273,93.951,291.935,89.72z"/>
<path fill="#3F2021" d="M137.117,144.357c-0.286,0-0.578-0.056-0.858-0.176c-34.539-14.636-61.048-34.082-69.385-45.725
	c-0.267-0.375-0.411-0.823-0.413-1.282l-0.005-6.084c-0.002-1.218,0.942-2.242,2.205-2.207c1.216,0,2.203,0.985,2.205,2.202
	l0.006,5.363c8.264,10.958,34.245,29.747,67.106,43.673c1.122,0.475,1.646,1.768,1.171,2.891
	C138.792,143.852,137.976,144.357,137.117,144.357z"/>
<path fill="#3F2021" d="M308.97,133.032h-1.684c-1.155,5.595-5.87,9.037-11.138,10.185c-0.107,0.023-0.213,0.049-0.32,0.07
	c-0.287,0.059-0.576,0.104-0.864,0.148c-0.23,0.035-0.462,0.064-0.695,0.09c-0.219,0.024-0.437,0.05-0.655,0.066
	c-0.477,0.035-0.956,0.062-1.44,0.062c-4.282,0-8.271-1.413-11.306-3.966c-3.78,1.179-8.009,2.392-11.479,3.162
	c-1.486,0.45-3.053,0.71-4.67,0.773c-0.262,0.018-0.513,0.032-0.737,0.032c-4.441,0-8.579-1.508-11.649-4.245
	c-1.393-1.242-3.495-1.243-4.889-0.002c-3.076,2.738-7.215,4.247-11.653,4.247c-4.441,0-8.579-1.508-11.65-4.245
	c-1.393-1.242-3.495-1.243-4.89-0.002c-3.073,2.738-7.212,4.247-11.654,4.247c-4.441,0-8.578-1.508-11.649-4.245
	c-1.393-1.242-3.495-1.243-4.889-0.002c-3.074,2.738-7.213,4.247-11.652,4.247c-4.442,0-8.579-1.508-11.649-4.245
	c-1.393-1.242-3.495-1.243-4.889-0.002c-3.077,2.738-7.215,4.247-11.655,4.247c-2.291,0-4.499-0.41-6.524-1.173
	c-3.004-0.878-6.299-2.157-9.407-3.507c-0.212,0.125-0.417,0.265-0.606,0.434c-3.074,2.738-7.213,4.247-11.652,4.247
	c-0.487,0-0.969-0.026-1.447-0.063c-0.222-0.016-0.442-0.042-0.663-0.066c-0.205-0.023-0.409-0.05-0.611-0.08
	c-5.729-0.871-11.04-4.67-12.764-13.438l-1.312,3.027l1.969,5.541c-0.305,0.063-0.608,0.147-0.89,0.286
	c0.783,2.558,0.925,5.475,2.336,7.62c0.218,0.333,0.356,0.689,0.46,1.055c3.8,2.255,8.257,3.469,12.923,3.469
	c5.153,0,10.056-1.478,14.096-4.207c4.04,2.729,8.94,4.207,14.095,4.207s10.056-1.478,14.098-4.207
	c4.038,2.729,8.939,4.207,14.096,4.207c5.153,0,10.053-1.478,14.095-4.207c4.04,2.729,8.941,4.207,14.095,4.207
	s10.058-1.478,14.099-4.207c4.038,2.729,8.94,4.207,14.096,4.207c5.152,0,10.055-1.478,14.096-4.207
	c4.04,2.729,8.94,4.207,14.096,4.207c5.153,0,10.055-1.478,14.095-4.207c4.039,2.729,8.941,4.207,14.097,4.207
	c4.557,0,8.907-1.166,12.648-3.321c-0.001-0.415,0.047-0.83,0.212-1.233c0.852-2.09,1.172-3.917,1.266-5.985l0.19-0.449
	L308.97,133.032z"/>
<path fill="#3F2021" d="M372.653,273.863L372.653,273.863h-1.625c-0.093-0.001-0.18-0.01-0.273-0.01l-6.537,0.01h-0.236v0.002
	h-0.387c-3.945,0.006-5.502-0.512-9.76-3.409l-6.629,9.123c3.846,3.833,7.273,5.594,14.121,5.581l2.816-0.004h5.383
	c0.021,0.003,0.044,0.004,0.068,0.004h1.129h1.93h0.51h1.75h4.018h6.039h0.238C385.208,278.718,381.608,273.863,372.653,273.863z"/>
<g>
	<path fill="#3F2021" d="M230.321,259.913h33.104c4.672,0,6.746-0.621,11.312-3.735l7.158,9.963
		c-4.15,4.047-8.301,5.914-15.773,5.914h-5.188v47.84h-12.453v-47.84h-18.16V259.913z"/>
	<path fill="#3F2021" d="M289.635,319.895v-51.99c0-1.245-0.207-2.49-1.555-2.904h-3.529l4.359-11.105
		c10.688,0,12.762,6.953,12.762,11.727v11.623l12.766-3.32h3.527c9.443,0,14.32,6.537,14.32,13.904v18.16
		c0,1.246,0.209,2.491,1.557,2.906h3.529l-4.359,11c-10.791,0-12.764-6.85-12.764-11.623v-18.988c0-2.596-1.246-3.945-3.32-4.152
		l-15.256,4.046v30.718H289.635z"/>
	<path fill="#3F2021" d="M41.508,292.602h-0.104c0.623,0.727,1.244,1.766,1.765,2.803l5.084,10.688
		c0.52,1.142,1.971,1.972,3.527,1.972h3.84l-4.566,11.83h-2.904c-5.709,0-9.443-3.943-11.623-8.925
		c-2.18-4.462-4.773-9.962-6.85-14.424h-0.207c-3.84,1.038-7.68,2.282-11.52,3.321h-0.104v20.027H5.5v-44.727
		c0-1.66-0.209-3.425-2.386-3.633H0l4.67-11.622c11.207,0,13.178,7.473,13.178,12.764v14.633h0.311
		c5.396-1.556,10.898-3.321,16.189-4.878c4.877-1.66,7.057-2.697,7.057-5.5c0-3.319-1.764-5.084-6.641-5.084h-3.426l4.982-11.935
		c9.963,0,17.121,5.501,17.121,16.292C53.442,284.924,50.225,289.074,41.508,292.602z"/>
	<path fill="#3F2021" d="M190.049,258.669v15.255h13.387l-3.529,11.207h-9.857v20.857c0,1.246,0.311,2.491,1.557,2.906h11.207
		l-3.32,11h-6.848c-12.143,0-14.529-5.604-14.529-13.387v-21.377h-10.066l4.256-11.207h5.811v-10.17L190.049,258.669z"/>
	<path fill="#3F2021" d="M386.686,308.887c-1.248-0.414-1.457-1.658-1.459-2.904l-0.02-6.994c0-6.179-3.451-10.832-12.037-10.832
		v5.888v2.056v0.867c-0.062-0.064-5.759-6.004-14.428-5.99c-6.746,0.011-15.869,5.213-15.855,14.76
		c0.014,8.303,6.664,15.244,16.006,15.229c8.818-0.013,14.004-2.614,16.49-4.797c2.496,2.693,6.232,3.726,8.412,3.722l2.076-0.003
		l4.342-11.008L386.686,308.887z M359.602,309.861c-2.076,0.004-4.775-1.342-4.781-4.144c-0.004-3.217,2.797-3.739,4.768-3.743
		c3.426-0.005,7.061,2.583,9.451,5.278C366.864,308.916,363.752,309.854,359.602,309.861z"/>
	<path fill="#EE2737" d="M402.176,256.1c3.682,0,6.701,3.115,6.701,6.796s-3.02,6.606-6.701,6.606s-6.605-2.926-6.605-6.606
		S398.495,256.1,402.176,256.1z"/>
	<path fill="#3F2021" d="M408.194,273.865v32.065c0,1.246,0.209,2.491,1.35,2.906h6.227l-4.463,10.999
		c-12.555,0-15.254-5.604-15.254-13.387v-32.584H408.194z"/>
	<path fill="#3F2021" d="M65.813,319.896v-51.989c0-1.246-0.207-2.49-1.555-2.906h-3.529l4.357-11.104
		c10.69,0,12.766,6.951,12.766,11.727v11.623l12.762-3.321h3.531c9.441,0,14.32,6.537,14.32,13.905v18.161
		c0,1.244,0.207,2.489,1.557,2.904h3.527l-4.357,11c-10.793,0-12.766-6.85-12.766-11.624v-18.988c0-2.594-1.244-3.943-3.32-4.15
		l-15.254,4.047v30.716H65.813z"/>
	<g>
		<path fill="#3F2021" d="M141.561,273.096c-16.188,0-22.828,10.064-22.828,17.121v13.488c0,7.059,6.641,17.227,22.828,17.227
			c17.434,0,22.727-10.168,22.727-17.227v-13.488C164.288,283.16,158.995,273.096,141.561,273.096z M152.25,302.151
			c0,5.084-3.63,7.472-10.689,7.472c-7.16,0-10.791-2.492-10.791-7.472v-10.378c0-4.98,3.631-7.369,10.791-7.471
			c7.059,0,10.689,2.387,10.689,7.471V302.151z"/>
		<g>
			<path fill="#EE2737" d="M142.295,268.633h15.18c-1.27-6.057-5.898-10.274-15.186-10.274v10.272
				C142.291,268.631,142.291,268.633,142.295,268.633z"/>
			<path fill="#EE2737" d="M148.799,268.633h-10.562c-6.694,0-11.514-2.053-11.514-12.498v-1.141l9.461-2.856v4.892
				c0.357,1.07,1.43,1.339,2.5,1.339l0,0L148.799,268.633z"/>
			<rect x="138.237" y="258.358" fill="#EE2737" width="4.053" height="10.274"/>
		</g>
	</g>
</g>
<g>
	<path fill="#3F2021" d="M8.817,360.704v2.896h6.429v2.725H8.817v19.029H5.539v-19.029H2.644V363.6h2.895v-2.47
		c0-4.896,3.449-7.535,7.195-7.535c1.703,0.042,3.448,0.554,4.81,1.575l-1.362,2.682c-1.021-0.725-2.256-1.148-3.405-1.148
		C10.605,356.703,8.817,358.107,8.817,360.704z"/>
	<path fill="#3F2021" d="M39.939,374.114c0,6.727-4.725,11.367-11.367,11.367c-6.641,0-11.367-4.641-11.367-11.367
		c0-6.683,4.726-11.281,11.367-11.281C35.214,362.833,39.939,367.432,39.939,374.114z M20.526,374.156
		c0,4.939,3.363,8.346,8.046,8.346s8.046-3.406,8.046-8.346c0-4.895-3.363-8.301-8.046-8.301S20.526,369.262,20.526,374.156z"/>
	<path fill="#3F2021" d="M49.458,367.898c1.49-3.277,4.258-5.065,8.046-5.107v3.363c-4.726-0.087-7.663,2.852-8.046,7.279v11.92
		h-3.32v-22.436h3.32V367.898z"/>
	<path fill="#3F2021" d="M87.766,383.822c-1.575,1.063-3.278,1.659-5.065,1.701c-3.279,0-5.705-1.958-5.705-6.386v-12.813H73.76
		v-2.683h3.235v-5.917h3.278v5.917l7.109-0.042v2.725h-7.109v12.219c0,2.724,1.064,3.745,2.98,3.745
		c1.149,0,2.341-0.382,3.576-1.149L87.766,383.822z"/>
	<path fill="#3F2021" d="M96.184,367.898c1.49-3.277,4.258-5.065,8.046-5.107v3.363c-4.725-0.087-7.663,2.852-8.046,7.279v11.92
		h-3.32v-22.436h3.32V367.898z"/>
	<path fill="#3F2021" d="M128.923,385.354h-3.32v-5.065c-1.49,3.49-4.47,5.151-8.515,5.193c-5.236,0-8.387-3.321-8.387-8.728
		v-13.836h3.321v12.941c0,3.96,2.342,6.301,6.216,6.301c4.641-0.085,7.365-3.447,7.365-8.217v-11.025h3.32V385.354z"/>
	<path fill="#3F2021" d="M156.76,375.435h-18.306c0.596,4.385,3.789,7.151,8.131,7.151c2.768,0,5.194-0.979,6.94-2.809l1.83,1.957
		c-2.128,2.385-5.279,3.747-9.025,3.747c-6.599,0-11.154-4.641-11.154-11.325c0-6.684,4.598-11.323,11.111-11.323
		C153.525,362.791,157.101,367.814,156.76,375.435z M153.78,372.709c-0.213-4.299-3.108-7.023-7.493-7.023
		c-4.257,0-7.322,2.767-7.833,7.023H153.78z"/>
	<path fill="#3F2021" d="M186.212,358.83v26.523h-3.406V358.83H173.1v-3.277h22.861v3.277H186.212z"/>
	<path fill="#3F2021" d="M221.428,371.518v13.836h-3.32v-12.941c0-3.96-2.385-6.301-6.344-6.301
		c-4.768,0.043-7.577,3.406-7.577,8.217v11.025h-3.321v-31.589h3.321v14.177c1.532-3.49,4.598-5.108,8.728-5.15
		C218.278,362.791,221.428,366.111,221.428,371.518z"/>
	<path fill="#3F2021" d="M243.13,381.906c-1.788,2.426-4.64,3.617-8.216,3.617c-4.641,0-7.621-2.979-7.621-6.854
		c0-3.917,3.107-6.386,8.387-6.428h7.365v-1.32c0-3.277-2.043-5.236-6.002-5.236c-2.47,0-4.77,0.936-7.109,2.554l-1.406-2.427
		c2.896-1.916,5.322-3.021,9.153-3.021c5.534,0,8.601,2.936,8.643,7.748l0.042,14.814h-3.235V381.906z M243.088,377.605v-2.682
		h-6.982c-3.746,0-5.705,1.148-5.705,3.619c0,2.467,2.002,4.086,5.152,4.086C239.341,382.629,242.237,380.713,243.088,377.605z"/>
	<path fill="#3F2021" d="M257.657,356.49c0,1.318-0.938,2.298-2.172,2.298s-2.171-0.979-2.171-2.298c0-1.32,0.937-2.3,2.171-2.3
		S257.657,355.17,257.657,356.49z M253.868,385.354v-22.436h3.277v22.436H253.868z"/>
	<path fill="#3F2021" d="M280.129,360.576c0-4.215,3.064-7.279,7.195-7.238c1.446,0.044,2.979,0.427,4.086,1.065l-0.085,3.108
		c-1.021-0.724-2.257-1.15-3.405-1.192c-2.555-0.042-4.514,1.958-4.514,4.726v2.428h6.43v2.682h-6.43v19.199h-3.277v-19.199h-2.896
		v-2.682h2.896V360.576z M297.116,385.354h-3.32v-31.589h3.32V385.354z"/>
	<path fill="#3F2021" d="M319.337,381.906c-1.788,2.426-4.64,3.617-8.217,3.617c-4.641,0-7.62-2.979-7.62-6.854
		c0-3.917,3.107-6.386,8.387-6.428h7.365v-1.32c0-3.277-2.043-5.236-6.003-5.236c-2.47,0-4.769,0.936-7.109,2.554l-1.405-2.427
		c2.896-1.916,5.322-3.021,9.153-3.021c5.534,0,8.6,2.936,8.643,7.748l0.042,14.814h-3.235V381.906z M319.295,377.605v-2.682h-6.982
		c-3.746,0-5.705,1.148-5.705,3.619c0,2.467,2.001,4.086,5.152,4.086C315.548,382.629,318.444,380.713,319.295,377.605z"/>
	<path fill="#3F2021" d="M334.842,385.354l-8.898-22.436h3.534l7.152,18.988l7.109-18.988h3.364l-8.813,22.436H334.842z"/>
	<path fill="#3F2021" d="M371.727,374.114c0,6.727-4.727,11.367-11.367,11.367s-11.367-4.641-11.367-11.367
		c0-6.683,4.727-11.281,11.367-11.281S371.727,367.432,371.727,374.114z M352.314,374.156c0,4.939,3.363,8.346,8.046,8.346
		c4.684,0,8.047-3.406,8.047-8.346c0-4.895-3.363-8.301-8.047-8.301C355.677,365.855,352.314,369.262,352.314,374.156z"/>
	<path fill="#3F2021" d="M397.7,385.354h-3.32v-5.065c-1.49,3.49-4.471,5.151-8.515,5.193c-5.236,0-8.388-3.321-8.388-8.728v-13.836
		h3.321v12.941c0,3.96,2.342,6.301,6.216,6.301c4.641-0.085,7.365-3.447,7.365-8.217v-11.025h3.32V385.354z"/>
	<path fill="#3F2021" d="M408.989,367.898c1.49-3.277,4.258-5.065,8.046-5.107v3.363c-4.726-0.087-7.663,2.852-8.046,7.279v11.92
		h-3.32v-22.436h3.32V367.898z"/>
</g>
</svg>
