<?xml version="1.0" encoding="utf-8"?>
<!-- Generator: Adobe Illustrator 15.0.2, SVG Export Plug-In . SVG Version: 6.00 Build 0)  -->
<!DOCTYPE svg PUBLIC "-//W3C//DTD SVG 1.1//EN" "http://www.w3.org/Graphics/SVG/1.1/DTD/svg11.dtd">
<svg version="1.1" id="Element" xmlns="http://www.w3.org/2000/svg" xmlns:xlink="http://www.w3.org/1999/xlink" x="0px" y="0px"
	 width="463.75px" height="88px" viewBox="-198.805 -11.445 463.75 88" enable-background="new -198.805 -11.445 463.75 88"
	 xml:space="preserve">
<g>
	<path fill="#FFFFFF" d="M-0.546,42.052c6.971,0,12.95,4.965,14.222,11.812c0.021,0.105,0.033,0.205,0.04,0.309
		c1.293,9.654,9.577,16.906,19.354,16.906c9.775,0,18.059-7.252,19.352-16.904c0.006-0.105,0.021-0.205,0.041-0.311
		c1.27-6.844,7.25-11.812,14.221-11.812c5.002,0,9.074,4.07,9.074,9.074c0,5.002-4.072,9.072-9.074,9.072
		c-1.512,0-2.738-1.225-2.738-2.738c0-1.512,1.227-2.74,2.738-2.74c1.984,0,3.6-1.609,3.6-3.596c0-1.984-1.615-3.6-3.6-3.6
		c-4.283,0-7.967,3.02-8.811,7.195C56.295,67.175,45.646,76.555,33.07,76.555c-12.579,0-23.229-9.381-24.804-21.836
		c-0.847-4.176-4.529-7.195-8.812-7.195c-1.984,0-3.598,1.615-3.598,3.6c0,1.986,1.613,3.596,3.598,3.596
		c1.512,0,2.738,1.227,2.738,2.74c0,1.512-1.227,2.738-2.738,2.738c-5.002,0-9.073-4.07-9.073-9.072
		C-9.619,46.122-5.548,42.052-0.546,42.052z"/>
	<path fill="#FFFFFF" d="M25.477,10.467c-0.223,0.073-0.446,0.104-0.669,0.104c-0.925,0-1.788-0.593-2.085-1.521
		c-0.342-1.069-0.515-2.184-0.515-3.31c0-3.784,1.923-7.235,5.14-9.234c0.104-0.066,0.211-0.118,0.319-0.162
		c1.99-1.16,3.21-3.277,3.21-5.597c0-1.209,0.983-2.191,2.192-2.191s2.189,0.982,2.189,2.191c0,2.179,1.076,4.18,2.881,5.387
		c3.574,1.891,5.789,5.561,5.789,9.606c0,1.126-0.174,2.24-0.516,3.309c-0.367,1.151-1.598,1.789-2.752,1.419
		c-1.152-0.367-1.787-1.6-1.42-2.751c0.203-0.639,0.307-1.305,0.307-1.977c0-2.383-1.283-4.542-3.365-5.685
		c-0.096-0.044-0.193-0.096-0.285-0.15c-1.109-0.713-2.061-1.598-2.827-2.609c-0.946,1.248-2.17,2.301-3.613,3.064
		c-1.801,1.207-2.867,3.203-2.867,5.38c0,0.672,0.104,1.338,0.308,1.977C27.264,8.867,26.629,10.098,25.477,10.467z"/>
	<path fill="#FFFFFF" d="M40.658,44.975c1.154-0.365,2.385,0.27,2.752,1.42c0.344,1.066,0.518,2.18,0.518,3.311
		c0,3.781-1.92,7.234-5.139,9.23c-0.105,0.064-0.211,0.119-0.32,0.166c-1.988,1.162-3.213,3.277-3.213,5.596
		c0,1.209-0.979,2.191-2.188,2.191s-2.191-0.982-2.191-2.191c0-2.176-1.074-4.178-2.881-5.387c-3.572-1.889-5.788-5.557-5.788-9.604
		c0-1.125,0.174-2.238,0.513-3.309c0.368-1.152,1.598-1.789,2.751-1.42s1.79,1.6,1.422,2.752c-0.202,0.637-0.306,1.303-0.306,1.977
		c0,2.377,1.283,4.539,3.363,5.682c0.097,0.041,0.193,0.096,0.287,0.158c1.111,0.705,2.062,1.592,2.829,2.605
		c0.944-1.252,2.166-2.305,3.613-3.064c1.799-1.209,2.865-3.203,2.865-5.381c0-0.674-0.102-1.34-0.305-1.977
		C38.875,46.579,39.508,45.344,40.658,44.975z"/>
	<path fill="#FFFFFF" d="M50.269,19.928c6.115,0,11.09,4.977,11.09,11.09s-4.975,11.086-11.09,11.086
		c-1.512,0-2.736-1.227-2.736-2.738s1.225-2.736,2.736-2.736c3.096,0,5.613-2.52,5.613-5.611c0-3.097-2.518-5.613-5.613-5.613
		c-1.689,0-2.92,0.764-3.656,1.4c-0.711,0.62-1.691,0.829-2.594,0.554c-0.902-0.273-1.602-0.993-1.846-1.902
		c-1.111-4.108-4.854-6.979-9.104-6.979c-4.252,0-7.996,2.869-9.106,6.979c-0.247,0.909-0.943,1.631-1.847,1.902
		c-0.901,0.276-1.88,0.067-2.594-0.554c-0.735-0.639-1.967-1.4-3.656-1.4c-3.096,0-5.612,2.517-5.612,5.613
		c0,3.094,2.517,5.611,5.612,5.611c1.512,0,2.737,1.223,2.737,2.736c0,1.512-1.226,2.738-2.737,2.738
		c-6.113,0-11.089-4.973-11.089-11.086s4.976-11.09,11.089-11.09c1.418,0,2.822,0.283,4.131,0.819
		c2.575-4.688,7.551-7.746,13.07-7.746c5.518,0,10.494,3.059,13.068,7.746C47.449,20.212,48.849,19.928,50.269,19.928z"/>
	<circle fill="#FFFFFF" cx="33.068" cy="5.645" r="3.128"/>
	<path fill="#FFFFFF" d="M29.941,49.239c0-1.73,1.399-3.129,3.129-3.129c1.727,0,3.125,1.398,3.125,3.129
		c0,1.727-1.398,3.129-3.125,3.129C31.341,52.368,29.941,50.966,29.941,49.239z"/>
</g>
<path fill="#FFFFFF" d="M262.945,46.872H83.933c-1.105,0-2-0.895-2-2s0.895-2,2-2h179.012c1.105,0,2,0.895,2,2
	S264.051,46.872,262.945,46.872z"/>
<path fill="#FFFFFF" d="M-17.794,46.872h-179.011c-1.104,0-2-0.895-2-2s0.896-2,2-2h179.011c1.104,0,2,0.895,2,2
	S-16.69,46.872-17.794,46.872z"/>
</svg>
